<?xml version="1.0" standalone="no"?>
<!DOCTYPE svg PUBLIC "-//W3C//DTD SVG 20010904//EN"
 "http://www.w3.org/TR/2001/REC-SVG-20010904/DTD/svg10.dtd">
<svg version="1.0" xmlns="http://www.w3.org/2000/svg"
 width="700.000000pt" height="700.000000pt" viewBox="0 0 700.000000 700.000000"
 preserveAspectRatio="xMidYMid meet">
<metadata>
Created by potrace 1.14, written by Peter Selinger 2001-2017
</metadata>
<g transform="translate(0.000000,700.000000) scale(0.100000,-0.100000)"
fill="#000000" stroke="none">
<path d="M2520 6410 c-512 -51 -914 -408 -1037 -919 -13 -55 -17 -166 -22
-646 -6 -517 -9 -586 -25 -635 -79 -246 -311 -419 -562 -420 -173 0 -287 -116
-287 -290 0 -174 114 -290 287 -290 251 -1 483 -174 562 -420 16 -49 19 -118
25 -635 5 -480 9 -591 22 -646 124 -513 528 -870 1039 -918 154 -15 245 7 313
74 105 106 105 314 0 420 -45 44 -97 66 -184 77 -238 28 -315 60 -432 177 -76
76 -116 139 -155 246 -17 46 -19 101 -25 635 -5 558 -7 589 -27 669 -50 190
-122 326 -263 494 -49 58 -89 111 -89 117 0 6 40 59 89 117 141 168 213 304
263 494 20 80 22 111 27 669 6 534 8 589 25 635 36 97 77 166 140 232 110 116
220 168 391 184 55 5 116 15 135 21 116 37 183 137 183 273 0 210 -139 311
-393 285z"/>
<path d="M4319 6410 c-62 -11 -115 -37 -154 -75 -105 -106 -105 -314 0 -420
46 -45 99 -67 190 -77 223 -24 309 -60 426 -177 76 -76 112 -132 152 -241 20
-53 21 -81 27 -640 6 -557 8 -589 28 -669 50 -190 122 -326 263 -494 49 -58
89 -111 89 -117 0 -6 -40 -59 -89 -117 -141 -168 -213 -304 -263 -494 -20 -80
-22 -112 -28 -669 -6 -559 -7 -587 -27 -640 -37 -101 -73 -159 -137 -227 -110
-116 -216 -166 -389 -183 -56 -6 -118 -16 -137 -22 -115 -37 -182 -137 -182
-273 0 -138 65 -234 187 -275 53 -18 202 -15 310 5 231 43 444 155 608 319
181 181 302 422 336 670 7 47 11 278 11 579 0 563 3 588 67 717 94 188 308
319 519 320 172 0 287 117 287 290 0 174 -114 290 -287 290 -250 1 -483 175
-562 420 -16 49 -19 118 -25 635 -7 621 -7 618 -62 780 -98 284 -317 535 -582
668 -170 84 -440 139 -576 117z"/>
</g>
</svg>
