<svg viewBox="0 0 60 20" fill="white" xmlns="http://www.w3.org/2000/svg">
<path d="M12.9583 0C9.60542 0 7 4.07875 7 7.58333C7 10.8713 9.34 13 12.9583 13C16.5767 13 18.9167 10.8713 18.9167 7.58333C18.9167 4.07875 16.3112 0 12.9583 0ZM10.25 10.5625C10.1429 10.5625 10.0381 10.5307 9.94907 10.4712C9.85999 10.4117 9.79056 10.3271 9.74957 10.2281C9.70857 10.1291 9.69784 10.0202 9.71874 9.91516C9.73964 9.81009 9.79123 9.71357 9.86698 9.63782C9.94274 9.56206 10.0393 9.51048 10.1443 9.48957C10.2494 9.46867 10.3583 9.4794 10.4573 9.5204C10.5563 9.5614 10.6409 9.63082 10.7004 9.7199C10.7599 9.80898 10.7917 9.9137 10.7917 10.0208C10.7917 10.1645 10.7346 10.3023 10.633 10.4039C10.5314 10.5054 10.3937 10.5625 10.25 10.5625ZM11.3333 11.9167C11.2262 11.9167 11.1215 11.8849 11.0324 11.8254C10.9433 11.7659 10.8739 11.6813 10.8329 11.5823C10.7919 11.4833 10.7812 11.3744 10.8021 11.2693C10.823 11.1643 10.8746 11.0677 10.9503 10.992C11.0261 10.9162 11.1226 10.8646 11.2277 10.8437C11.3327 10.8228 11.4416 10.8336 11.5406 10.8746C11.6396 10.9156 11.7242 10.985 11.7837 11.0741C11.8432 11.1631 11.875 11.2679 11.875 11.375C11.875 11.5187 11.8179 11.6564 11.7163 11.758C11.6148 11.8596 11.477 11.9167 11.3333 11.9167ZM12.4167 10.5625C12.3095 10.5625 12.2048 10.5307 12.1157 10.4712C12.0267 10.4117 11.9572 10.3271 11.9162 10.2281C11.8752 10.1291 11.8645 10.0202 11.8854 9.91516C11.9063 9.81009 11.9579 9.71357 12.0337 9.63782C12.1094 9.56206 12.2059 9.51048 12.311 9.48957C12.4161 9.46867 12.525 9.4794 12.624 9.5204C12.7229 9.5614 12.8075 9.63082 12.867 9.7199C12.9266 9.80898 12.9583 9.9137 12.9583 10.0208C12.9583 10.1645 12.9013 10.3023 12.7997 10.4039C12.6981 10.5054 12.5603 10.5625 12.4167 10.5625Z" />
<path d="M25.406 11.13C24.7733 11.13 24.236 11.013 23.794 10.779C23.352 10.5363 23.0357 10.2027 22.845 9.778C22.6543 9.34467 22.6023 8.842 22.689 8.27L23.326 4.24C23.4733 3.33 23.8633 2.628 24.496 2.134C25.1287 1.63134 25.9477 1.38 26.953 1.38C27.577 1.38 28.1057 1.50134 28.539 1.744C28.9723 1.98667 29.2887 2.32467 29.488 2.758C29.696 3.18267 29.7567 3.67667 29.67 4.24H27.72C27.7893 3.85867 27.733 3.56834 27.551 3.369C27.369 3.16967 27.083 3.07 26.693 3.07C26.303 3.07 25.9867 3.16967 25.744 3.369C25.5013 3.56834 25.3453 3.85867 25.276 4.24L24.639 8.27C24.5783 8.64267 24.639 8.93301 24.821 9.14101C25.003 9.34034 25.289 9.44001 25.679 9.44001C26.069 9.44001 26.3853 9.34034 26.628 9.14101C26.8707 8.93301 27.0223 8.64267 27.083 8.27H29.033C28.8943 9.18 28.5043 9.88634 27.863 10.389C27.2303 10.883 26.4113 11.13 25.406 11.13Z" />
<path d="M33.0969 11.13C32.4729 11.13 31.9443 11.0087 31.5109 10.766C31.0776 10.5233 30.7656 10.1897 30.5749 9.76501C30.3929 9.33167 30.3453 8.83334 30.4319 8.27L30.7049 6.58001C30.8523 5.67001 31.2336 4.968 31.8489 4.474C32.4729 3.97134 33.2833 3.72001 34.2799 3.72001C34.9126 3.72001 35.4413 3.84134 35.8659 4.084C36.2993 4.32667 36.6113 4.66467 36.8019 5.098C36.9926 5.52267 37.0403 6.01667 36.9449 6.58001L36.6719 8.27C36.5246 9.18 36.1389 9.88634 35.5149 10.389C34.8996 10.883 34.0936 11.13 33.0969 11.13ZM33.3699 9.44001C33.7513 9.44001 34.0546 9.34034 34.2799 9.14101C34.5139 8.93301 34.6613 8.64267 34.7219 8.27L34.9949 6.58001C35.0556 6.19867 34.9993 5.90834 34.8259 5.709C34.6613 5.50967 34.3883 5.41001 34.0069 5.41001C33.6343 5.41001 33.3309 5.50967 33.0969 5.709C32.8629 5.90834 32.7156 6.19867 32.6549 6.58001L32.3819 8.27C32.3213 8.64267 32.3776 8.93301 32.5509 9.14101C32.7243 9.34034 32.9973 9.44001 33.3699 9.44001Z" />
<path d="M40.9958 11.13C40.3632 11.13 39.8258 11.013 39.3838 10.779C38.9418 10.5363 38.6255 10.2027 38.4348 9.778C38.2442 9.34467 38.1922 8.842 38.2788 8.27L38.9158 4.24C39.0632 3.33 39.4532 2.628 40.0858 2.134C40.7185 1.63134 41.5375 1.38 42.5428 1.38C43.1668 1.38 43.6955 1.50134 44.1288 1.744C44.5622 1.98667 44.8785 2.32467 45.0778 2.758C45.2858 3.18267 45.3465 3.67667 45.2598 4.24H43.3098C43.3792 3.85867 43.3228 3.56834 43.1408 3.369C42.9588 3.16967 42.6728 3.07 42.2828 3.07C41.8928 3.07 41.5765 3.16967 41.3338 3.369C41.0912 3.56834 40.9352 3.85867 40.8658 4.24L40.2288 8.27C40.1682 8.64267 40.2288 8.93301 40.4108 9.14101C40.5928 9.34034 40.8788 9.44001 41.2688 9.44001C41.6588 9.44001 41.9752 9.34034 42.2178 9.14101C42.4605 8.93301 42.6122 8.64267 42.6728 8.27H44.6228C44.4842 9.18 44.0942 9.88634 43.4528 10.389C42.8202 10.883 42.0012 11.13 40.9958 11.13Z" />
<path d="M48.6868 11.13C48.0628 11.13 47.5341 11.0087 47.1008 10.766C46.6674 10.5233 46.3554 10.1897 46.1648 9.76501C45.9828 9.33167 45.9351 8.83334 46.0218 8.27L46.2948 6.58001C46.4421 5.67001 46.8234 4.968 47.4388 4.474C48.0628 3.97134 48.8731 3.72001 49.8698 3.72001C50.5024 3.72001 51.0311 3.84134 51.4558 4.084C51.8891 4.32667 52.2011 4.66467 52.3918 5.098C52.5824 5.52267 52.6301 6.01667 52.5348 6.58001L52.2618 8.27C52.1144 9.18 51.7288 9.88634 51.1048 10.389C50.4894 10.883 49.6834 11.13 48.6868 11.13ZM48.9598 9.44001C49.3411 9.44001 49.6444 9.34034 49.8698 9.14101C50.1038 8.93301 50.2511 8.64267 50.3118 8.27L50.5848 6.58001C50.6454 6.19867 50.5891 5.90834 50.4158 5.709C50.2511 5.50967 49.9781 5.41001 49.5968 5.41001C49.2241 5.41001 48.9208 5.50967 48.6868 5.709C48.4528 5.90834 48.3054 6.19867 48.2448 6.58001L47.9718 8.27C47.9111 8.64267 47.9674 8.93301 48.1408 9.14101C48.3141 9.34034 48.5871 9.44001 48.9598 9.44001Z" />
<path d="M1.31499 19.05C1.07499 19.05 0.869994 19.005 0.699994 18.915C0.533327 18.8217 0.411661 18.6917 0.334994 18.525C0.261661 18.3583 0.241661 18.1667 0.274994 17.95L0.379994 17.3C0.436661 16.95 0.584994 16.68 0.824994 16.49C1.06833 16.2967 1.38333 16.2 1.76999 16.2C2.00999 16.2 2.21166 16.2417 2.37499 16.325C2.54166 16.4083 2.66333 16.5267 2.73999 16.68C2.81999 16.8333 2.84666 17.015 2.81999 17.225H2.08999C2.09999 17.1083 2.06499 17.0167 1.98499 16.95C1.90833 16.8833 1.80166 16.85 1.66499 16.85C1.51499 16.85 1.39333 16.8883 1.29999 16.965C1.20999 17.0417 1.15333 17.1533 1.12999 17.3L1.02499 17.95C1.00166 18.0933 1.02333 18.205 1.08999 18.285C1.15999 18.3617 1.26999 18.4 1.41999 18.4C1.55666 18.4 1.67333 18.3683 1.76999 18.305C1.86999 18.2383 1.93499 18.145 1.96499 18.025H2.69499C2.63166 18.3483 2.47999 18.6 2.23999 18.78C1.99999 18.96 1.69166 19.05 1.31499 19.05Z" />
<path d="M4.26804 19.05C4.02804 19.05 3.82471 19.0033 3.65804 18.91C3.49137 18.8167 3.37137 18.6883 3.29804 18.525C3.22804 18.3583 3.20971 18.1667 3.24304 17.95L3.34804 17.3C3.40471 16.95 3.55137 16.68 3.78804 16.49C4.02804 16.2967 4.33971 16.2 4.72304 16.2C4.96637 16.2 5.16971 16.2467 5.33304 16.34C5.49971 16.4333 5.61971 16.5633 5.69304 16.73C5.76637 16.8933 5.78471 17.0833 5.74804 17.3L5.64304 17.95C5.58637 18.3 5.43804 18.5717 5.19804 18.765C4.96137 18.955 4.65137 19.05 4.26804 19.05ZM4.37304 18.4C4.51971 18.4 4.63637 18.3617 4.72304 18.285C4.81304 18.205 4.86971 18.0933 4.89304 17.95L4.99804 17.3C5.02137 17.1533 4.99971 17.0417 4.93304 16.965C4.86971 16.8883 4.76471 16.85 4.61804 16.85C4.47471 16.85 4.35804 16.8883 4.26804 16.965C4.17804 17.0417 4.12137 17.1533 4.09804 17.3L3.99304 17.95C3.96971 18.0933 3.99137 18.205 4.05804 18.285C4.12471 18.3617 4.22971 18.4 4.37304 18.4Z" />
<path d="M6.10609 19L6.54109 16.25H7.26609L7.18109 16.775H7.40109L7.13109 16.95C7.16775 16.7267 7.26775 16.5467 7.43109 16.41C7.59775 16.27 7.79275 16.2 8.01609 16.2C8.28275 16.2 8.48109 16.2933 8.61109 16.48C8.74442 16.6667 8.78609 16.915 8.73609 17.225L8.45609 19H7.70609L7.97609 17.3C7.99942 17.1567 7.97942 17.0467 7.91609 16.97C7.85275 16.89 7.75442 16.85 7.62109 16.85C7.48775 16.85 7.37775 16.89 7.29109 16.97C7.20442 17.0467 7.14942 17.1567 7.12609 17.3L6.85609 19H6.10609Z" />
<path d="M10.5491 19C10.2691 19 10.0625 18.92 9.92913 18.76C9.7958 18.6 9.7508 18.38 9.79413 18.1L9.97913 16.925H9.23913L9.34413 16.25H10.0841L10.2091 15.475H10.9591L10.8341 16.25H11.9091L11.8041 16.925H10.7291L10.5441 18.075C10.5341 18.1483 10.5441 18.2083 10.5741 18.255C10.6041 18.3017 10.6558 18.325 10.7291 18.325H11.5541L11.4491 19H10.5491Z" />
<path d="M13.2672 19.05C13.0272 19.05 12.8238 19.0033 12.6572 18.91C12.4905 18.8167 12.3688 18.6867 12.2922 18.52C12.2188 18.3533 12.2005 18.1633 12.2372 17.95L12.3422 17.3C12.4022 16.95 12.5522 16.68 12.7922 16.49C13.0322 16.2967 13.3422 16.2 13.7222 16.2C13.9588 16.2 14.1605 16.24 14.3272 16.32C14.4972 16.3967 14.6222 16.505 14.7022 16.645C14.7822 16.785 14.8072 16.9483 14.7772 17.135C14.7438 17.355 14.6505 17.5267 14.4972 17.65C14.3472 17.77 14.1538 17.83 13.9172 17.83H12.9772L12.9522 17.95C12.9188 18.1233 12.9372 18.25 13.0072 18.33C13.0805 18.41 13.1988 18.45 13.3622 18.45C13.4688 18.45 13.5638 18.4333 13.6472 18.4C13.7338 18.3667 13.7905 18.3167 13.8172 18.25H14.5522C14.4588 18.5033 14.2988 18.7 14.0722 18.84C13.8488 18.98 13.5805 19.05 13.2672 19.05ZM13.0472 17.365L13.8122 17.355C13.8688 17.355 13.9155 17.34 13.9522 17.31C13.9888 17.28 14.0138 17.225 14.0272 17.145C14.0472 17.0283 14.0205 16.935 13.9472 16.865C13.8738 16.7917 13.7688 16.755 13.6322 16.755C13.4688 16.755 13.3388 16.8033 13.2422 16.9C13.1455 16.9967 13.0838 17.13 13.0572 17.3L13.0472 17.365Z" />
<path d="M14.9002 19L16.0752 17.56L15.4002 16.25H16.2152L16.4702 16.8C16.4902 16.8433 16.5086 16.8917 16.5252 16.945C16.5419 16.9983 16.5536 17.0417 16.5602 17.075C16.5769 17.0417 16.6002 16.9983 16.6302 16.945C16.6636 16.8917 16.6969 16.8433 16.7302 16.8L17.1552 16.25H18.0102L16.9202 17.59L17.6402 19H16.8252L16.5302 18.35C16.5102 18.3033 16.4902 18.255 16.4702 18.205C16.4502 18.1517 16.4369 18.1083 16.4302 18.075C16.4136 18.1083 16.3902 18.1517 16.3602 18.205C16.3336 18.2583 16.3019 18.3067 16.2652 18.35L15.7552 19H14.9002Z" />
<path d="M19.5433 19C19.2633 19 19.0566 18.92 18.9233 18.76C18.7899 18.6 18.7449 18.38 18.7883 18.1L18.9733 16.925H18.2333L18.3383 16.25H19.0783L19.2033 15.475H19.9533L19.8283 16.25H20.9033L20.7983 16.925H19.7233L19.5383 18.075C19.5283 18.1483 19.5383 18.2083 19.5683 18.255C19.5983 18.3017 19.6499 18.325 19.7233 18.325H20.5483L20.4433 19H19.5433Z" />
<path d="M22.7413 19C22.448 19 22.2263 18.9117 22.0763 18.735C21.9263 18.555 21.8747 18.3183 21.9213 18.025L22.2363 16.025H21.3613L21.4713 15.35H23.0963L22.6763 18C22.6597 18.0967 22.673 18.175 22.7163 18.235C22.763 18.295 22.8313 18.325 22.9213 18.325H23.6963L23.5913 19H22.7413Z" />
<path d="M25.2594 19.05C25.0194 19.05 24.816 19.0033 24.6494 18.91C24.4827 18.8167 24.361 18.6867 24.2844 18.52C24.211 18.3533 24.1927 18.1633 24.2294 17.95L24.3344 17.3C24.3944 16.95 24.5444 16.68 24.7844 16.49C25.0244 16.2967 25.3344 16.2 25.7144 16.2C25.951 16.2 26.1527 16.24 26.3194 16.32C26.4894 16.3967 26.6144 16.505 26.6944 16.645C26.7744 16.785 26.7994 16.9483 26.7694 17.135C26.736 17.355 26.6427 17.5267 26.4894 17.65C26.3394 17.77 26.146 17.83 25.9094 17.83H24.9694L24.9444 17.95C24.911 18.1233 24.9294 18.25 24.9994 18.33C25.0727 18.41 25.191 18.45 25.3544 18.45C25.461 18.45 25.556 18.4333 25.6394 18.4C25.726 18.3667 25.7827 18.3167 25.8094 18.25H26.5444C26.451 18.5033 26.291 18.7 26.0644 18.84C25.841 18.98 25.5727 19.05 25.2594 19.05ZM25.0394 17.365L25.8044 17.355C25.861 17.355 25.9077 17.34 25.9444 17.31C25.981 17.28 26.006 17.225 26.0194 17.145C26.0394 17.0283 26.0127 16.935 25.9394 16.865C25.866 16.7917 25.761 16.755 25.6244 16.755C25.461 16.755 25.331 16.8033 25.2344 16.9C25.1377 16.9967 25.076 17.13 25.0494 17.3L25.0394 17.365Z" />
<path d="M28.1374 19.05C27.7974 19.05 27.5357 18.9717 27.3524 18.815C27.1691 18.6583 27.0974 18.4533 27.1374 18.2H27.8724C27.8591 18.2933 27.8824 18.3633 27.9424 18.41C28.0057 18.4567 28.1007 18.48 28.2274 18.48H28.4474C28.5807 18.48 28.6891 18.4567 28.7724 18.41C28.8591 18.36 28.9091 18.2933 28.9224 18.21C28.9358 18.1267 28.9141 18.0667 28.8574 18.03C28.8041 17.99 28.7174 17.9633 28.5974 17.95L27.9824 17.875C27.7457 17.845 27.5741 17.755 27.4674 17.605C27.3607 17.4517 27.3241 17.2617 27.3574 17.035C27.4041 16.7583 27.5274 16.55 27.7274 16.41C27.9307 16.27 28.2091 16.2 28.5624 16.2H28.7974C29.0141 16.2 29.1991 16.235 29.3524 16.305C29.5091 16.375 29.6241 16.4717 29.6974 16.595C29.7741 16.715 29.7991 16.8533 29.7724 17.01H29.0374C29.0507 16.93 29.0274 16.8683 28.9674 16.825C28.9108 16.7817 28.8241 16.76 28.7074 16.76H28.4724C28.3557 16.76 28.2641 16.7817 28.1974 16.825C28.1307 16.8683 28.0907 16.9283 28.0774 17.005C28.0641 17.0817 28.0841 17.1333 28.1374 17.16C28.1941 17.1867 28.2741 17.2067 28.3774 17.22L28.9674 17.295C29.2341 17.3283 29.4224 17.4233 29.5324 17.58C29.6457 17.7367 29.6807 17.9433 29.6374 18.2C29.5941 18.48 29.4641 18.6917 29.2474 18.835C29.0307 18.9783 28.7341 19.05 28.3574 19.05H28.1374Z" />
<path d="M31.1355 19.05C30.7955 19.05 30.5338 18.9717 30.3505 18.815C30.1671 18.6583 30.0955 18.4533 30.1355 18.2H30.8705C30.8571 18.2933 30.8805 18.3633 30.9405 18.41C31.0038 18.4567 31.0988 18.48 31.2255 18.48H31.4455C31.5788 18.48 31.6871 18.4567 31.7705 18.41C31.8571 18.36 31.9071 18.2933 31.9205 18.21C31.9338 18.1267 31.9121 18.0667 31.8555 18.03C31.8021 17.99 31.7155 17.9633 31.5955 17.95L30.9805 17.875C30.7438 17.845 30.5721 17.755 30.4655 17.605C30.3588 17.4517 30.3221 17.2617 30.3555 17.035C30.4021 16.7583 30.5255 16.55 30.7255 16.41C30.9288 16.27 31.2071 16.2 31.5605 16.2H31.7955C32.0121 16.2 32.1971 16.235 32.3505 16.305C32.5071 16.375 32.6221 16.4717 32.6955 16.595C32.7721 16.715 32.7971 16.8533 32.7705 17.01H32.0355C32.0488 16.93 32.0255 16.8683 31.9655 16.825C31.9088 16.7817 31.8221 16.76 31.7055 16.76H31.4705C31.3538 16.76 31.2621 16.7817 31.1955 16.825C31.1288 16.8683 31.0888 16.9283 31.0755 17.005C31.0621 17.0817 31.0821 17.1333 31.1355 17.16C31.1921 17.1867 31.2721 17.2067 31.3755 17.22L31.9655 17.295C32.2321 17.3283 32.4205 17.4233 32.5305 17.58C32.6438 17.7367 32.6788 17.9433 32.6355 18.2C32.5921 18.48 32.4621 18.6917 32.2455 18.835C32.0288 18.9783 31.7321 19.05 31.3555 19.05H31.1355Z" />
<path d="M37.315 19.05C37.075 19.05 36.87 19.005 36.7 18.915C36.5333 18.8217 36.4117 18.6917 36.335 18.525C36.2617 18.3583 36.2417 18.1667 36.275 17.95L36.38 17.3C36.4367 16.95 36.585 16.68 36.825 16.49C37.0683 16.2967 37.3833 16.2 37.77 16.2C38.01 16.2 38.2117 16.2417 38.375 16.325C38.5417 16.4083 38.6633 16.5267 38.74 16.68C38.82 16.8333 38.8467 17.015 38.82 17.225H38.09C38.1 17.1083 38.065 17.0167 37.985 16.95C37.9083 16.8833 37.8017 16.85 37.665 16.85C37.515 16.85 37.3933 16.8883 37.3 16.965C37.21 17.0417 37.1533 17.1533 37.13 17.3L37.025 17.95C37.0017 18.0933 37.0233 18.205 37.09 18.285C37.16 18.3617 37.27 18.4 37.42 18.4C37.5567 18.4 37.6733 18.3683 37.77 18.305C37.87 18.2383 37.935 18.145 37.965 18.025H38.695C38.6317 18.3483 38.48 18.6 38.24 18.78C38 18.96 37.6917 19.05 37.315 19.05Z" />
<path d="M40.268 19.05C40.028 19.05 39.8247 19.0033 39.658 18.91C39.4914 18.8167 39.3714 18.6883 39.298 18.525C39.228 18.3583 39.2097 18.1667 39.243 17.95L39.348 17.3C39.4047 16.95 39.5514 16.68 39.788 16.49C40.028 16.2967 40.3397 16.2 40.723 16.2C40.9664 16.2 41.1697 16.2467 41.333 16.34C41.4997 16.4333 41.6197 16.5633 41.693 16.73C41.7664 16.8933 41.7847 17.0833 41.748 17.3L41.643 17.95C41.5864 18.3 41.438 18.5717 41.198 18.765C40.9614 18.955 40.6514 19.05 40.268 19.05ZM40.373 18.4C40.5197 18.4 40.6364 18.3617 40.723 18.285C40.813 18.205 40.8697 18.0933 40.893 17.95L40.998 17.3C41.0214 17.1533 40.9997 17.0417 40.933 16.965C40.8697 16.8883 40.7647 16.85 40.618 16.85C40.4747 16.85 40.358 16.8883 40.268 16.965C40.178 17.0417 40.1214 17.1533 40.098 17.3L39.993 17.95C39.9697 18.0933 39.9914 18.205 40.058 18.285C40.1247 18.3617 40.2297 18.4 40.373 18.4Z" />
<path d="M41.9661 19L42.4011 16.25H43.0161L42.9511 16.675H43.0561L42.9511 16.73C42.9778 16.5733 43.0394 16.4467 43.1361 16.35C43.2361 16.25 43.3561 16.2 43.4961 16.2C43.6361 16.2 43.7444 16.2567 43.8211 16.37C43.8978 16.48 43.9228 16.6233 43.8961 16.8L43.8111 16.675H43.9511L43.8911 16.73C43.9178 16.57 43.9828 16.4417 44.0861 16.345C44.1894 16.2483 44.3111 16.2 44.4511 16.2C44.6144 16.2 44.7411 16.265 44.8311 16.395C44.9244 16.525 44.9544 16.6933 44.9211 16.9L44.5861 19H43.9411L44.2611 16.985C44.2744 16.9083 44.2678 16.85 44.2411 16.81C44.2144 16.7667 44.1694 16.745 44.1061 16.745C44.0428 16.745 43.9944 16.7667 43.9611 16.81C43.9278 16.85 43.9044 16.9083 43.8911 16.985L43.5711 19H42.9811L43.3011 16.985C43.3144 16.9083 43.3094 16.85 43.2861 16.81C43.2628 16.7667 43.2194 16.745 43.1561 16.745C43.0928 16.745 43.0428 16.7667 43.0061 16.81C42.9694 16.85 42.9444 16.9083 42.9311 16.985L42.6111 19H41.9661Z" />
<path d="M44.9641 19L45.3991 16.25H46.0141L45.9491 16.675H46.0541L45.9491 16.73C45.9758 16.5733 46.0375 16.4467 46.1341 16.35C46.2341 16.25 46.3541 16.2 46.4941 16.2C46.6341 16.2 46.7425 16.2567 46.8191 16.37C46.8958 16.48 46.9208 16.6233 46.8941 16.8L46.8091 16.675H46.9491L46.8891 16.73C46.9158 16.57 46.9808 16.4417 47.0841 16.345C47.1875 16.2483 47.3091 16.2 47.4491 16.2C47.6125 16.2 47.7391 16.265 47.8291 16.395C47.9225 16.525 47.9525 16.6933 47.9191 16.9L47.5841 19H46.9391L47.2591 16.985C47.2725 16.9083 47.2658 16.85 47.2391 16.81C47.2125 16.7667 47.1675 16.745 47.1041 16.745C47.0408 16.745 46.9925 16.7667 46.9591 16.81C46.9258 16.85 46.9025 16.9083 46.8891 16.985L46.5691 19H45.9791L46.2991 16.985C46.3125 16.9083 46.3075 16.85 46.2841 16.81C46.2608 16.7667 46.2175 16.745 46.1541 16.745C46.0908 16.745 46.0408 16.7667 46.0041 16.81C45.9675 16.85 45.9425 16.9083 45.9291 16.985L45.6091 19H44.9641Z" />
<path d="M49.2672 19.05C49.0272 19.05 48.8239 19.0033 48.6572 18.91C48.4905 18.8167 48.3689 18.6867 48.2922 18.52C48.2189 18.3533 48.2005 18.1633 48.2372 17.95L48.3422 17.3C48.4022 16.95 48.5522 16.68 48.7922 16.49C49.0322 16.2967 49.3422 16.2 49.7222 16.2C49.9589 16.2 50.1605 16.24 50.3272 16.32C50.4972 16.3967 50.6222 16.505 50.7022 16.645C50.7822 16.785 50.8072 16.9483 50.7772 17.135C50.7439 17.355 50.6505 17.5267 50.4972 17.65C50.3472 17.77 50.1539 17.83 49.9172 17.83H48.9772L48.9522 17.95C48.9189 18.1233 48.9372 18.25 49.0072 18.33C49.0805 18.41 49.1989 18.45 49.3622 18.45C49.4689 18.45 49.5639 18.4333 49.6472 18.4C49.7339 18.3667 49.7905 18.3167 49.8172 18.25H50.5522C50.4589 18.5033 50.2989 18.7 50.0722 18.84C49.8489 18.98 49.5805 19.05 49.2672 19.05ZM49.0472 17.365L49.8122 17.355C49.8689 17.355 49.9155 17.34 49.9522 17.31C49.9889 17.28 50.0139 17.225 50.0272 17.145C50.0472 17.0283 50.0205 16.935 49.9472 16.865C49.8739 16.7917 49.7689 16.755 49.6322 16.755C49.4689 16.755 49.3389 16.8033 49.2422 16.9C49.1455 16.9967 49.0839 17.13 49.0572 17.3L49.0472 17.365Z" />
<path d="M51.1002 19L51.5352 16.25H52.2602L52.1752 16.775H52.3952L52.1252 16.95C52.1619 16.7267 52.2619 16.5467 52.4252 16.41C52.5919 16.27 52.7869 16.2 53.0102 16.2C53.2769 16.2 53.4752 16.2933 53.6052 16.48C53.7386 16.6667 53.7802 16.915 53.7302 17.225L53.4502 19H52.7002L52.9702 17.3C52.9936 17.1567 52.9736 17.0467 52.9102 16.97C52.8469 16.89 52.7486 16.85 52.6152 16.85C52.4819 16.85 52.3719 16.89 52.2852 16.97C52.1986 17.0467 52.1436 17.1567 52.1202 17.3L51.8502 19H51.1002Z" />
<path d="M55.5433 19C55.2633 19 55.0566 18.92 54.9233 18.76C54.7899 18.6 54.7449 18.38 54.7883 18.1L54.9733 16.925H54.2333L54.3383 16.25H55.0783L55.2033 15.475H55.9533L55.8283 16.25H56.9033L56.7983 16.925H55.7233L55.5383 18.075C55.5283 18.1483 55.5383 18.2083 55.5683 18.255C55.5983 18.3017 55.6499 18.325 55.7233 18.325H56.5483L56.4433 19H55.5433Z" />
<path d="M58.1413 19.05C57.8013 19.05 57.5397 18.9717 57.3563 18.815C57.173 18.6583 57.1013 18.4533 57.1413 18.2H57.8763C57.863 18.2933 57.8863 18.3633 57.9463 18.41C58.0097 18.4567 58.1047 18.48 58.2313 18.48H58.4513C58.5847 18.48 58.693 18.4567 58.7763 18.41C58.863 18.36 58.913 18.2933 58.9263 18.21C58.9397 18.1267 58.918 18.0667 58.8613 18.03C58.808 17.99 58.7213 17.9633 58.6013 17.95L57.9863 17.875C57.7497 17.845 57.578 17.755 57.4713 17.605C57.3647 17.4517 57.328 17.2617 57.3613 17.035C57.408 16.7583 57.5313 16.55 57.7313 16.41C57.9347 16.27 58.213 16.2 58.5663 16.2H58.8013C59.018 16.2 59.203 16.235 59.3563 16.305C59.513 16.375 59.628 16.4717 59.7013 16.595C59.778 16.715 59.803 16.8533 59.7763 17.01H59.0413C59.0547 16.93 59.0313 16.8683 58.9713 16.825C58.9147 16.7817 58.828 16.76 58.7113 16.76H58.4763C58.3597 16.76 58.268 16.7817 58.2013 16.825C58.1347 16.8683 58.0947 16.9283 58.0813 17.005C58.068 17.0817 58.088 17.1333 58.1413 17.16C58.198 17.1867 58.278 17.2067 58.3813 17.22L58.9713 17.295C59.238 17.3283 59.4263 17.4233 59.5363 17.58C59.6497 17.7367 59.6847 17.9433 59.6413 18.2C59.598 18.48 59.468 18.6917 59.2513 18.835C59.0347 18.9783 58.738 19.05 58.3613 19.05H58.1413Z" />
</svg>
