<svg viewBox="0 0 24 24" fill="none" xmlns="http://www.w3.org/2000/svg">
<path d="M21.732 16.38C21.182 16.38 20.732 15.93 20.732 15.38V13.88C20.732 12.78 19.832 11.88 18.732 11.88C18.432 11.88 18.232 12.08 18.232 12.38C18.232 12.68 18.432 12.88 18.732 12.88C19.282 12.88 19.732 13.33 19.732 13.88V15.38C19.732 15.98 19.982 16.48 20.432 16.88C19.982 17.28 19.732 17.78 19.732 18.38V19.88C19.732 20.43 19.282 20.88 18.732 20.88C18.432 20.88 18.232 21.08 18.232 21.38C18.232 21.68 18.432 21.88 18.732 21.88C19.832 21.88 20.732 20.98 20.732 19.88V18.38C20.732 17.83 21.182 17.38 21.732 17.38C22.032 17.38 22.232 17.18 22.232 16.88C22.232 16.58 22.032 16.38 21.732 16.38Z" fill="black"/>
<path d="M7.23199 19.1487V14.1987H7.84227V16.9585H8.55426L9.59851 15.4193H10.2969L9.09672 17.1958L10.3647 19.1487H9.65275L8.56782 17.4874H7.84227V19.1487H7.23199Z" fill="black"/>
<path d="M11.2165 19.1487V18.5927H12.5387V15.9753H11.3521V15.4193H13.149V18.5927H14.4035V19.1487H11.2165ZM12.7761 14.748C12.6269 14.748 12.5094 14.7095 12.4235 14.6327C12.3376 14.5558 12.2946 14.4519 12.2946 14.3208C12.2946 14.1851 12.3376 14.0789 12.4235 14.0021C12.5094 13.9207 12.6269 13.88 12.7761 13.88C12.9252 13.88 13.0428 13.9207 13.1287 14.0021C13.2146 14.0789 13.2575 14.1851 13.2575 14.3208C13.2575 14.4519 13.2146 14.5558 13.1287 14.6327C13.0428 14.7095 12.9252 14.748 12.7761 14.748Z" fill="black"/>
<path d="M17.1132 19.1487C16.8058 19.1487 16.5594 19.0606 16.374 18.8843C16.1887 18.7034 16.096 18.4639 16.096 18.1655V15.9753H15.0247V15.4193H16.096V14.3682H16.7063V15.4193H18.232V15.9753H16.7063V18.1655C16.7063 18.2921 16.7425 18.396 16.8148 18.4774C16.8916 18.5543 16.9911 18.5927 17.1132 18.5927H18.1981V19.1487H17.1132Z" fill="black"/>
<path d="M2.732 17.38C3.282 17.38 3.73199 17.83 3.73199 18.38L3.73199 19.88C3.73199 20.98 4.63199 21.88 5.73199 21.88C6.03199 21.88 6.23199 21.68 6.23199 21.38C6.23199 21.08 6.03199 20.88 5.73199 20.88C5.18199 20.88 4.73199 20.43 4.73199 19.88L4.73199 18.38C4.73199 17.78 4.482 17.28 4.032 16.88C4.482 16.48 4.732 15.98 4.732 15.38L4.732 13.88C4.732 13.33 5.182 12.88 5.732 12.88C6.032 12.88 6.232 12.68 6.232 12.38C6.232 12.08 6.032 11.88 5.732 11.88C4.632 11.88 3.732 12.78 3.732 13.88L3.732 15.38C3.732 15.93 3.282 16.38 2.732 16.38C2.432 16.38 2.232 16.58 2.232 16.88C2.232 17.18 2.432 17.38 2.732 17.38Z" fill="black"/>
<path d="M4.928 11C4.344 11 3.832 10.892 3.392 10.676C2.952 10.452 2.608 10.144 2.36 9.752C2.12 9.352 2 8.888 2 8.36V4.64C2 4.104 2.12 3.64 2.36 3.248C2.608 2.856 2.952 2.552 3.392 2.336C3.832 2.112 4.344 2 4.928 2C5.52 2 6.032 2.112 6.464 2.336C6.904 2.552 7.244 2.856 7.484 3.248C7.732 3.64 7.856 4.104 7.856 4.64H6.056C6.056 4.288 5.956 4.02 5.756 3.836C5.564 3.652 5.288 3.56 4.928 3.56C4.568 3.56 4.288 3.652 4.088 3.836C3.896 4.02 3.8 4.288 3.8 4.64V8.36C3.8 8.704 3.896 8.972 4.088 9.164C4.288 9.348 4.568 9.44 4.928 9.44C5.288 9.44 5.564 9.348 5.756 9.164C5.956 8.972 6.056 8.704 6.056 8.36H7.856C7.856 8.888 7.732 9.352 7.484 9.752C7.244 10.144 6.904 10.452 6.464 10.676C6.032 10.892 5.52 11 4.928 11Z" fill="black"/>
<path d="M12.0513 11C11.4353 11 10.8953 10.892 10.4313 10.676C9.97531 10.46 9.61931 10.156 9.36331 9.764C9.11531 9.364 8.99131 8.896 8.99131 8.36H10.7433C10.7433 8.688 10.8593 8.952 11.0913 9.152C11.3313 9.344 11.6513 9.44 12.0513 9.44C12.4433 9.44 12.7473 9.348 12.9633 9.164C13.1873 8.972 13.2993 8.72 13.2993 8.408C13.2993 8.16 13.2273 7.94 13.0833 7.748C12.9393 7.548 12.7273 7.416 12.4473 7.352L11.3793 7.1C10.6913 6.94 10.1433 6.632 9.73531 6.176C9.33531 5.712 9.13531 5.16 9.13531 4.52C9.13531 4 9.24731 3.552 9.47131 3.176C9.70331 2.8 10.0313 2.512 10.4553 2.312C10.8873 2.104 11.3953 2 11.9793 2C12.5713 2 13.0793 2.104 13.5033 2.312C13.9353 2.512 14.2673 2.8 14.4993 3.176C14.7393 3.552 14.8593 3.996 14.8593 4.508H13.1073C13.1073 4.204 13.0073 3.968 12.8073 3.8C12.6073 3.624 12.3313 3.536 11.9793 3.536C11.6353 3.536 11.3673 3.62 11.1753 3.788C10.9833 3.956 10.8873 4.18 10.8873 4.46C10.8873 4.692 10.9593 4.88 11.1033 5.024C11.2473 5.168 11.4513 5.272 11.7153 5.336L12.8193 5.588C13.5073 5.74 14.0513 6.072 14.4513 6.584C14.8593 7.088 15.0633 7.696 15.0633 8.408C15.0633 8.928 14.9393 9.384 14.6913 9.776C14.4513 10.168 14.1033 10.472 13.6473 10.688C13.1993 10.896 12.6673 11 12.0513 11Z" fill="black"/>
<path d="M19.2466 11C18.6306 11 18.0906 10.892 17.6266 10.676C17.1706 10.46 16.8146 10.156 16.5586 9.764C16.3106 9.364 16.1866 8.896 16.1866 8.36H17.9386C17.9386 8.688 18.0546 8.952 18.2866 9.152C18.5266 9.344 18.8466 9.44 19.2466 9.44C19.6386 9.44 19.9426 9.348 20.1586 9.164C20.3826 8.972 20.4946 8.72 20.4946 8.408C20.4946 8.16 20.4226 7.94 20.2786 7.748C20.1346 7.548 19.9226 7.416 19.6426 7.352L18.5746 7.1C17.8866 6.94 17.3386 6.632 16.9306 6.176C16.5306 5.712 16.3306 5.16 16.3306 4.52C16.3306 4 16.4426 3.552 16.6666 3.176C16.8986 2.8 17.2266 2.512 17.6506 2.312C18.0826 2.104 18.5906 2 19.1746 2C19.7666 2 20.2746 2.104 20.6986 2.312C21.1306 2.512 21.4626 2.8 21.6946 3.176C21.9346 3.552 22.0546 3.996 22.0546 4.508H20.3026C20.3026 4.204 20.2026 3.968 20.0026 3.8C19.8026 3.624 19.5266 3.536 19.1746 3.536C18.8306 3.536 18.5626 3.62 18.3706 3.788C18.1786 3.956 18.0826 4.18 18.0826 4.46C18.0826 4.692 18.1546 4.88 18.2986 5.024C18.4426 5.168 18.6466 5.272 18.9106 5.336L20.0146 5.588C20.7026 5.74 21.2466 6.072 21.6466 6.584C22.0546 7.088 22.2586 7.696 22.2586 8.408C22.2586 8.928 22.1346 9.384 21.8866 9.776C21.6466 10.168 21.2986 10.472 20.8426 10.688C20.3946 10.896 19.8626 11 19.2466 11Z" fill="black"/>
</svg>
