<svg viewBox="0 0 24 24" fill="none" xmlns="http://www.w3.org/2000/svg">
<g clip-path="url(#clip0_4_29)">
<path d="M21 10.25C20.3142 10.25 19.75 9.68579 19.75 9V6C19.75 3.38579 17.6142 1.25 15 1.25C14.5296 1.25 14.0793 1.41009 13.7447 1.74467C13.4101 2.07925 13.25 2.52956 13.25 3C13.25 3.47044 13.4101 3.92075 13.7447 4.25533C14.0793 4.58991 14.5296 4.75 15 4.75C15.6858 4.75 16.25 5.31421 16.25 6V9C16.25 10.1625 16.6488 11.1679 17.3529 12C16.6488 12.8321 16.25 13.8375 16.25 15V18C16.25 18.6858 15.6858 19.25 15 19.25C14.5296 19.25 14.0793 19.4101 13.7447 19.7447C13.4101 20.0793 13.25 20.5296 13.25 21C13.25 21.4704 13.4101 21.9207 13.7447 22.2553C14.0793 22.5899 14.5296 22.75 15 22.75C17.6142 22.75 19.75 20.6142 19.75 18V15C19.75 14.3142 20.3142 13.75 21 13.75C21.4704 13.75 21.9207 13.5899 22.2553 13.2553C22.5899 12.9207 22.75 12.4704 22.75 12C22.75 11.5296 22.5899 11.0793 22.2553 10.7447C21.9207 10.4101 21.4704 10.25 21 10.25Z" fill="black" stroke="white" stroke-width="1.5"/>
<path d="M3 13.75C3.68579 13.75 4.25 14.3142 4.25 15L4.25 18C4.25 20.6142 6.38579 22.75 9 22.75C9.47044 22.75 9.92075 22.5899 10.2553 22.2553C10.5899 21.9207 10.75 21.4704 10.75 21C10.75 20.5296 10.5899 20.0793 10.2553 19.7447C9.92075 19.4101 9.47044 19.25 9 19.25C8.31421 19.25 7.75 18.6858 7.75 18L7.75 15C7.75 13.8375 7.35117 12.8321 6.64714 12C7.35118 11.1679 7.75 10.1625 7.75 9L7.75 6C7.75 5.31421 8.31422 4.75 9 4.75C9.47044 4.75 9.92075 4.58991 10.2553 4.25533C10.5899 3.92075 10.75 3.47044 10.75 3C10.75 2.52956 10.5899 2.07925 10.2553 1.74467C9.92075 1.41009 9.47044 1.25 9 1.25C6.38579 1.25 4.25 3.38579 4.25 6L4.25 9C4.25 9.68579 3.68579 10.25 3 10.25C2.52957 10.25 2.07926 10.4101 1.74467 10.7447C1.41009 11.0793 1.25 11.5296 1.25 12C1.25 12.4704 1.41009 12.9207 1.74467 13.2553C2.07925 13.5899 2.52957 13.75 3 13.75Z" fill="black" stroke="white" stroke-width="1.5"/>
</g>
<defs>
<clipPath id="clip0_4_29">
<rect width="24" height="24" fill="white"/>
</clipPath>
</defs>
</svg>
