<svg viewBox="0 0 60 19" fill="none" xmlns="http://www.w3.org/2000/svg">
<path d="M3.72249 12.3484V6.65163H4.65468V7.73919H4.85148L4.65468 7.9567C4.65468 7.50787 4.78933 7.16261 5.05863 6.92093C5.32793 6.67235 5.70081 6.54806 6.17726 6.54806C6.75039 6.54806 7.20613 6.72414 7.54448 7.0763C7.88283 7.42846 8.05201 7.90837 8.05201 8.51602V12.3484H7.11981V8.68174C7.11981 8.24672 7.00933 7.91527 6.78837 7.6874C6.57431 7.45263 6.28084 7.33524 5.90796 7.33524C5.52128 7.33524 5.214 7.45608 4.98613 7.69776C4.76516 7.93944 4.65468 8.28125 4.65468 8.72317V12.3484H3.72249Z" fill="white"/>
<path d="M11.5903 12.4519C11.0034 12.4519 10.5373 12.2897 10.192 11.9651C9.84675 11.6337 9.67412 11.2021 9.67412 10.6704C9.67412 10.3183 9.75353 10.011 9.91235 9.74859C10.0712 9.48619 10.2921 9.28249 10.5752 9.13748C10.8583 8.98557 11.1829 8.90961 11.5489 8.90961H13.3097V8.46423C13.3097 8.09135 13.2095 7.81515 13.0093 7.63562C12.809 7.44918 12.5052 7.35596 12.0978 7.35596C11.7388 7.35596 11.4487 7.42156 11.2278 7.55275C11.0068 7.68395 10.8894 7.86694 10.8756 8.10171H9.94342C9.97794 7.65288 10.1851 7.28345 10.5649 6.99344C10.9516 6.69652 11.4625 6.54806 12.0978 6.54806C12.7883 6.54806 13.3166 6.71378 13.6825 7.04523C14.0554 7.37667 14.2419 7.83932 14.2419 8.43316V12.3484H13.32V11.3126H13.1647L13.3097 11.1054C13.3097 11.3816 13.2406 11.6199 13.1025 11.8201C12.9644 12.0204 12.7676 12.1757 12.5121 12.2862C12.2566 12.3967 11.9494 12.4519 11.5903 12.4519ZM11.8182 11.6648C12.2739 11.6648 12.6364 11.5543 12.9057 11.3333C13.175 11.1124 13.3097 10.812 13.3097 10.4322V9.63465H11.6524C11.3486 9.63465 11.1 9.72787 10.9067 9.91431C10.7202 10.0938 10.627 10.3355 10.627 10.6393C10.627 10.957 10.7306 11.209 10.9378 11.3955C11.1518 11.575 11.4453 11.6648 11.8182 11.6648Z" fill="white"/>
<path d="M16.4854 10.5358V7.94635H19.0749V10.5358H16.4854Z" fill="white"/>
<path d="M21.3191 12.3484V6.65163H22.2513V7.73919H22.4481L22.2513 7.9567C22.2513 7.50787 22.386 7.16261 22.6553 6.92093C22.9246 6.67235 23.2974 6.54806 23.7739 6.54806C24.347 6.54806 24.8028 6.72414 25.1411 7.0763C25.4795 7.42846 25.6486 7.90837 25.6486 8.51602V12.3484H24.7164V8.68174C24.7164 8.24672 24.606 7.91527 24.385 7.6874C24.1709 7.45263 23.8775 7.33524 23.5046 7.33524C23.1179 7.33524 22.8106 7.45608 22.5828 7.69776C22.3618 7.93944 22.2513 8.28125 22.2513 8.72317V12.3484H21.3191Z" fill="white"/>
<path d="M29.6841 12.4312C29.2283 12.4312 28.8313 12.3415 28.493 12.1619C28.1615 11.9824 27.9026 11.7235 27.7161 11.3851C27.5366 11.0398 27.4468 10.629 27.4468 10.1525V8.84747C27.4468 8.36411 27.5366 7.95325 27.7161 7.6149C27.9026 7.27655 28.1615 7.01761 28.493 6.83807C28.8313 6.65854 29.2283 6.56877 29.6841 6.56877C30.1467 6.56877 30.5438 6.65854 30.8752 6.83807C31.2067 7.01761 31.4622 7.27655 31.6417 7.6149C31.8281 7.95325 31.9214 8.36411 31.9214 8.84747V10.1525C31.9214 10.629 31.8281 11.0398 31.6417 11.3851C31.4622 11.7235 31.2032 11.9824 30.8649 12.1619C30.5334 12.3415 30.1398 12.4312 29.6841 12.4312ZM29.6841 11.6026C30.0915 11.6026 30.4091 11.4887 30.637 11.2608C30.8718 11.0329 30.9892 10.698 30.9892 10.2561V8.74389C30.9892 8.30196 30.8718 7.96706 30.637 7.73919C30.4091 7.51132 30.0915 7.39739 29.6841 7.39739C29.2836 7.39739 28.966 7.51132 28.7312 7.73919C28.4964 7.96706 28.379 8.30196 28.379 8.74389V10.2561C28.379 10.698 28.4964 11.0329 28.7312 11.2608C28.966 11.4887 29.2836 11.6026 29.6841 11.6026Z" fill="white"/>
<path d="M34.0821 10.5358V7.94635H36.6715V10.5358H34.0821Z" fill="white"/>
<path d="M38.9157 12.3484V6.65163H39.8479V7.73919H40.0447L39.8479 7.9567C39.8479 7.50787 39.9826 7.16261 40.2519 6.92093C40.5212 6.67235 40.8941 6.54806 41.3705 6.54806C41.9436 6.54806 42.3994 6.72414 42.7377 7.0763C43.0761 7.42846 43.2453 7.90837 43.2453 8.51602V12.3484H42.3131V8.68174C42.3131 8.24672 42.2026 7.91527 41.9816 7.6874C41.7676 7.45263 41.4741 7.33524 41.1012 7.33524C40.7145 7.33524 40.4072 7.45608 40.1794 7.69776C39.9584 7.93944 39.8479 8.28125 39.8479 8.72317V12.3484H38.9157Z" fill="white"/>
<path d="M47.2807 12.4312C46.825 12.4312 46.4279 12.3415 46.0896 12.1619C45.7581 11.9824 45.4992 11.7235 45.3127 11.3851C45.1332 11.0398 45.0434 10.629 45.0434 10.1525V8.84747C45.0434 8.36411 45.1332 7.95325 45.3127 7.6149C45.4992 7.27655 45.7581 7.01761 46.0896 6.83807C46.4279 6.65854 46.825 6.56877 47.2807 6.56877C47.7434 6.56877 48.1404 6.65854 48.4718 6.83807C48.8033 7.01761 49.0588 7.27655 49.2383 7.6149C49.4248 7.95325 49.518 8.36411 49.518 8.84747V10.1525C49.518 10.629 49.4248 11.0398 49.2383 11.3851C49.0588 11.7235 48.7998 11.9824 48.4615 12.1619C48.13 12.3415 47.7364 12.4312 47.2807 12.4312ZM47.2807 11.6026C47.6881 11.6026 48.0057 11.4887 48.2336 11.2608C48.4684 11.0329 48.5858 10.698 48.5858 10.2561V8.74389C48.5858 8.30196 48.4684 7.96706 48.2336 7.73919C48.0057 7.51132 47.6881 7.39739 47.2807 7.39739C46.8802 7.39739 46.5626 7.51132 46.3278 7.73919C46.093 7.96706 45.9756 8.30196 45.9756 8.74389V10.2561C45.9756 10.698 46.093 11.0329 46.3278 11.2608C46.5626 11.4887 46.8802 11.6026 47.2807 11.6026Z" fill="white"/>
<path d="M51.6373 12.3484L50.7051 6.65163H51.513L52.093 10.6704C52.1137 10.8223 52.1344 10.9915 52.1551 11.1779C52.1759 11.3575 52.1897 11.5059 52.1966 11.6233C52.2104 11.5059 52.2242 11.3575 52.238 11.1779C52.2587 10.9915 52.2829 10.8223 52.3105 10.6704L53.0252 6.65163H53.9574L54.6721 10.6704C54.6997 10.8223 54.7239 10.9915 54.7446 11.1779C54.7722 11.3575 54.7894 11.5059 54.7964 11.6233C54.8102 11.5059 54.8274 11.3575 54.8481 11.1779C54.8689 10.9915 54.8896 10.8223 54.9103 10.6704L55.511 6.65163H56.2775L55.3039 12.3484H54.2785L53.6259 8.41244C53.5983 8.2191 53.5707 8.0154 53.5431 7.80134C53.5224 7.58037 53.5051 7.4112 53.4913 7.29381C53.4844 7.36977 53.474 7.47334 53.4602 7.60454C53.4464 7.72883 53.4291 7.86348 53.4084 8.00849C53.3877 8.1466 53.367 8.28125 53.3463 8.41244L52.6627 12.3484H51.6373Z" fill="white"/>
</svg>
