<svg width="60" height="19" viewBox="0 0 60 19" fill="none" xmlns="http://www.w3.org/2000/svg">
<path d="M5.20754 1.73863C0.682031 4.35143 -0.874176 10.1593 1.73863 14.6848C1.8353 14.8522 1.99453 14.9744 2.18129 15.0244C2.36805 15.0745 2.56704 15.0483 2.73448 14.9516C2.90193 14.8549 3.02411 14.6957 3.07415 14.509C3.1242 14.3222 3.098 14.1232 3.00132 13.9558C0.79094 10.1273 2.10743 5.21207 5.93656 3.00132C9.76505 0.79094 14.6806 2.10806 16.891 5.93656C16.9877 6.104 17.1469 6.22618 17.3337 6.27623C17.5204 6.32627 17.7194 6.30007 17.8869 6.2034C18.0543 6.10672 18.1765 5.94749 18.2265 5.76073C18.2766 5.57397 18.2504 5.37498 18.1537 5.20754C15.5409 0.682031 9.73304 -0.874176 5.20754 1.73863Z" fill="black"/>
<path d="M6.30107 3.63268C2.81981 5.64258 1.62277 10.11 3.63268 13.5913C3.72935 13.7587 3.88858 13.8809 4.07534 13.9309C4.2621 13.981 4.46109 13.9548 4.62853 13.8581C4.79598 13.7614 4.91816 13.6022 4.9682 13.4154C5.01824 13.2287 4.99205 13.0297 4.89537 12.8622C3.28752 10.0774 4.24521 6.50322 7.03009 4.89537C9.81497 3.28752 13.3891 4.24521 14.997 7.03009C15.0936 7.19753 15.2529 7.31971 15.4396 7.36976C15.6264 7.4198 15.8254 7.3936 15.9928 7.29693C16.1603 7.20025 16.2824 7.04102 16.3325 6.85426C16.3825 6.6675 16.3563 6.46851 16.2596 6.30107C14.2497 2.81981 9.78232 1.62277 6.30107 3.63268Z" fill="black"/>
<path d="M7.39459 5.5267C4.95759 6.93371 4.12007 10.0613 5.52672 12.4977C5.62339 12.6651 5.78262 12.7873 5.96938 12.8374C6.15614 12.8874 6.35513 12.8612 6.52257 12.7645C6.69002 12.6679 6.8122 12.5086 6.86224 12.3219C6.91228 12.1351 6.88609 11.9361 6.78941 11.7687C5.78446 10.0281 6.38298 7.79435 8.12361 6.7894C9.86424 5.78445 12.0979 6.38297 13.1029 8.12359C13.1996 8.29104 13.3588 8.41322 13.5456 8.46326C13.7323 8.51331 13.9313 8.48711 14.0988 8.39043C14.2662 8.29376 14.3884 8.13453 14.4384 7.94777C14.4885 7.76101 14.4623 7.56202 14.3656 7.39458C12.959 4.9582 9.83097 4.12006 7.39459 5.5267Z" fill="black"/>
<path d="M8.264 18L9.656 9.24001H12.464C13.072 9.24001 13.584 9.35201 14 9.57601C14.424 9.80001 14.732 10.112 14.924 10.512C15.124 10.912 15.18 11.376 15.092 11.904C15.004 12.488 14.792 13 14.456 13.44C14.12 13.872 13.692 14.192 13.172 14.4L14.252 18H12.356L11.468 14.688H10.556L10.028 18H8.264ZM10.796 13.128H11.84C12.24 13.128 12.564 13.028 12.812 12.828C13.068 12.628 13.224 12.348 13.28 11.988C13.344 11.612 13.28 11.32 13.088 11.112C12.904 10.904 12.612 10.8 12.212 10.8H11.168L10.796 13.128Z" fill="black"/>
<path d="M14.9673 18L18.5073 9.24001H20.7873L21.5673 18H19.7793L19.6713 16.02H17.5833L16.8513 18H14.9673ZM18.1113 14.58H19.5873L19.5033 12.468C19.4953 12.164 19.4793 11.864 19.4553 11.568C19.4393 11.264 19.4273 11.028 19.4193 10.86C19.3633 11.028 19.2873 11.26 19.1913 11.556C19.1033 11.852 19.0033 12.152 18.8913 12.456L18.1113 14.58Z" fill="black"/>
<path d="M22.8226 18L23.0746 16.44H24.8146L25.7026 10.8H23.9626L24.2146 9.24001H29.4946L29.2426 10.8H27.5026L26.6146 16.44H28.3546L28.1026 18H22.8226Z" fill="black"/>
<path d="M29.7779 18L31.1699 9.24001H33.2459L34.4579 16.02C34.4819 15.724 34.5099 15.384 34.5419 15C34.5739 14.608 34.6099 14.22 34.6499 13.836C34.6899 13.444 34.7299 13.112 34.7699 12.84L35.3459 9.24001H36.9299L35.5379 18H33.4619L32.2619 11.22C32.2459 11.476 32.2219 11.78 32.1899 12.132C32.1659 12.484 32.1339 12.84 32.0939 13.2C32.0619 13.56 32.0219 13.88 31.9739 14.16L31.3619 18H29.7779Z" fill="black"/>
<path d="M37.0452 18L38.4373 9.24001H41.2573C41.8253 9.24001 42.3132 9.34001 42.7212 9.54001C43.1292 9.73201 43.4292 9.99601 43.6213 10.332C43.8212 10.668 43.8853 11.056 43.8133 11.496C43.7653 11.824 43.6573 12.12 43.4893 12.384C43.3213 12.648 43.1132 12.864 42.8652 13.032C42.6252 13.192 42.3572 13.292 42.0612 13.332L42.0493 13.356C42.3773 13.388 42.6492 13.504 42.8652 13.704C43.0892 13.896 43.2452 14.144 43.3332 14.448C43.4292 14.752 43.4452 15.092 43.3812 15.468C43.2532 16.268 42.8892 16.892 42.2892 17.34C41.6972 17.78 40.9252 18 39.9732 18H37.0452ZM39.0133 16.548H40.1413C40.5333 16.548 40.8573 16.444 41.1133 16.236C41.3773 16.028 41.5373 15.74 41.5933 15.372C41.6493 15.004 41.5813 14.716 41.3893 14.508C41.1973 14.292 40.9052 14.184 40.5132 14.184H39.3853L39.0133 16.548ZM39.6133 12.768H40.6693C41.0213 12.768 41.3092 12.676 41.5332 12.492C41.7652 12.3 41.9093 12.044 41.9653 11.724C42.0133 11.396 41.9493 11.144 41.7733 10.968C41.6053 10.784 41.3453 10.692 40.9933 10.692H39.9373L39.6133 12.768Z" fill="black"/>
<path d="M47.0246 18.12C46.4406 18.12 45.9486 18.012 45.5486 17.796C45.1566 17.572 44.8726 17.264 44.6966 16.872C44.5286 16.472 44.4846 16.008 44.5646 15.48L45.1526 11.76C45.2886 10.92 45.6406 10.272 46.2086 9.81601C46.7846 9.35201 47.5326 9.12001 48.4526 9.12001C49.0446 9.12001 49.5366 9.23201 49.9286 9.45601C50.3286 9.67201 50.6126 9.98001 50.7806 10.38C50.9566 10.772 51.0006 11.232 50.9126 11.76L50.3246 15.48C50.1966 16.32 49.8446 16.972 49.2686 17.436C48.6926 17.892 47.9446 18.12 47.0246 18.12ZM47.2766 16.56C47.6366 16.56 47.9206 16.468 48.1286 16.284C48.3366 16.092 48.4686 15.824 48.5246 15.48L49.1126 11.76C49.1686 11.408 49.1246 11.14 48.9806 10.956C48.8366 10.772 48.5806 10.68 48.2126 10.68C47.8446 10.68 47.5566 10.772 47.3486 10.956C47.1406 11.14 47.0086 11.408 46.9526 11.76L46.3646 15.48C46.3086 15.824 46.3566 16.092 46.5086 16.284C46.6606 16.468 46.9166 16.56 47.2766 16.56Z" fill="black"/>
<path d="M51.5799 18L52.1559 9.24001H53.5479L53.0559 15.096C53.0479 15.208 53.0319 15.368 53.0079 15.576C52.9919 15.776 52.9719 15.988 52.9479 16.212C52.9239 16.428 52.8999 16.624 52.8759 16.8C52.9239 16.624 52.9719 16.428 53.0199 16.212C53.0759 15.988 53.1279 15.776 53.1759 15.576C53.2319 15.368 53.2719 15.208 53.2959 15.096L54.9279 9.24001H56.2959L56.0319 15.096C56.0319 15.208 56.0239 15.368 56.0079 15.576C55.9999 15.776 55.9879 15.988 55.9719 16.212C55.9639 16.428 55.9559 16.624 55.9479 16.8C55.9799 16.624 56.0159 16.428 56.0559 16.212C56.1039 15.988 56.1479 15.776 56.1879 15.576C56.2359 15.368 56.2719 15.208 56.2959 15.096L57.6399 9.24001H59.1159L56.8479 18H54.9759L55.3119 12.18C55.3199 12.044 55.3319 11.868 55.3479 11.652C55.3639 11.428 55.3799 11.196 55.3959 10.956C55.4199 10.716 55.4399 10.504 55.4559 10.32C55.4159 10.504 55.3679 10.716 55.3119 10.956C55.2639 11.196 55.2159 11.428 55.1679 11.652C55.1199 11.868 55.0759 12.044 55.0359 12.18L53.4639 18H51.5799Z" fill="black"/>
</svg>
