<svg viewBox="0 0 60 19" fill="none" xmlns="http://www.w3.org/2000/svg">
<path d="M7.76 15V3.32H11.04C11.7333 3.32 12.3307 3.45333 12.832 3.72C13.3333 3.976 13.7173 4.34933 13.984 4.84C14.2613 5.32 14.4 5.89067 14.4 6.552C14.4 7.39467 14.16 8.09867 13.68 8.664C13.2107 9.22933 12.5653 9.57067 11.744 9.688L14.48 15H13.52L10.88 9.72H8.56V15H7.76ZM8.56 9H11.04C11.8187 9 12.4373 8.776 12.896 8.328C13.3653 7.86933 13.6 7.26667 13.6 6.52C13.6 5.76267 13.3653 5.16533 12.896 4.728C12.4373 4.28 11.8187 4.056 11.04 4.056H8.56V9Z" fill="black"/>
<path d="M17.5138 15V3.32H23.7537V4.056H18.3138V8.552H23.1938V9.272H18.3138V14.264H23.7537V15H17.5138Z" fill="black"/>
<path d="M26.6595 15V3.32H27.7955L30.0035 9.224L32.1795 3.32H33.3155V15H32.5315V7.96C32.5315 7.416 32.5368 6.872 32.5475 6.328C32.5582 5.77333 32.5742 5.26667 32.5955 4.808C32.6168 4.34933 32.6382 3.976 32.6595 3.688L30.4355 9.8H29.5555L27.2835 3.72C27.3155 4.008 27.3422 4.38133 27.3635 4.84C27.3848 5.29867 27.4008 5.8 27.4115 6.344C27.4328 6.87733 27.4435 7.416 27.4435 7.96V15H26.6595Z" fill="black"/>
<path d="M35.4533 15V3.32H38.3812L39.5653 8.312L40.7493 3.32H43.7093V15H41.5173V10.52C41.5173 9.74133 41.5386 8.97867 41.5812 8.232C41.6346 7.48533 41.6986 6.776 41.7733 6.104C41.8479 5.432 41.9173 4.824 41.9813 4.28L40.5093 10.04H38.5892L37.1493 4.424C37.2239 4.88267 37.2986 5.432 37.3732 6.072C37.4479 6.712 37.5119 7.41067 37.5653 8.168C37.6186 8.91467 37.6453 9.69867 37.6453 10.52V15H35.4533Z" fill="black"/>
<path d="M47.975 15V10.84L44.615 3.32H47.127L48.599 6.84C48.7483 7.192 48.8763 7.56533 48.983 7.96C49.1003 8.35467 49.1803 8.67467 49.223 8.92C49.2763 8.67467 49.351 8.35467 49.447 7.96C49.5537 7.56533 49.6763 7.192 49.815 6.84L51.239 3.32H53.735L50.375 10.84V15H47.975Z" fill="black"/>
<path d="M6 17.88H34.7875V18.68H6V17.88Z" fill="black"/>
</svg>
