<svg viewBox="0 0 306 86" fill="white" xmlns="http://www.w3.org/2000/svg">
<path d="M34.5727 25.4678V5.21375H51.0537V67.1875H34.5727V63.3177C33.391 64.4458 32.0647 65.3653 30.5961 66.0733C28.2715 67.1939 25.6564 67.7519 22.7621 67.7519C18.5431 67.7519 14.8052 66.7596 11.5708 64.7711C8.33632 62.7825 5.82354 59.9824 4.04423 56.3912C2.27638 52.823 1.39581 48.7227 1.39581 44.1019C1.39581 39.5341 2.26322 35.4999 4.00548 32.0111C5.75884 28.5001 8.2325 25.7672 11.4144 23.833C14.5944 21.8999 18.2768 20.9356 22.44 20.9356C25.3883 20.9356 28.0572 21.5072 30.4354 22.6547C31.9616 23.3912 33.3416 24.3296 34.5727 25.4678ZM26.3053 54.3144C28.7873 54.3144 30.7421 53.4406 32.2528 51.6681C33.7951 49.8585 34.5727 47.4865 34.5727 44.505C34.5727 41.4708 33.7953 39.0874 32.2574 37.307C30.7471 35.5586 28.7904 34.6956 26.3053 34.6956C23.821 34.6956 21.8502 35.5713 20.3122 37.3481C18.7462 39.1572 17.9574 41.5266 17.9574 44.505C17.9574 47.4834 18.7462 49.8528 20.3122 51.6619C21.8502 53.4387 23.821 54.3144 26.3053 54.3144ZM83.8055 38.8344C83.6895 37.3535 83.1233 36.2419 82.1008 35.4307C80.8911 34.4708 79.0689 33.97 76.6074 33.97C74.8794 33.97 72.9147 34.2529 70.7162 34.8226C68.5059 35.3954 66.2784 36.2301 64.0333 37.3278L63.002 37.8321L58.232 26.1361L59.172 25.7082C62.7754 24.0683 66.2354 22.8497 69.5527 22.0537C72.8835 21.2544 76.3361 20.855 79.909 20.855C86.1542 20.855 91.0658 22.3105 94.6066 25.2553C98.1881 28.2339 100.01 32.4186 100.067 37.7325V67.1875H83.8279V63.8896C80.8189 66.5201 76.7832 67.8325 71.7758 67.8325C66.9013 67.8325 63.0002 66.4921 60.1294 63.792C57.2487 61.0826 55.8048 57.5048 55.8048 53.1319C55.8048 48.6776 57.3794 45.1415 60.514 42.619C63.5959 40.1389 67.9461 38.8904 73.5474 38.8344H83.8055ZM83.8279 51.2157V48.6438H76.3658C72.8757 48.6438 71.4 49.7469 71.4 52.0838C71.4 53.2805 71.7911 54.1739 72.5901 54.8509C73.4261 55.5592 74.6169 55.9269 76.2048 55.9269C78.1502 55.9269 79.8255 55.4596 81.2565 54.5284C82.6062 53.65 83.4496 52.5554 83.8279 51.2157ZM115.663 18.8125C113.18 18.8125 111.09 17.9757 109.461 16.3136C107.837 14.6567 107.019 12.5574 107.019 10.0781C107.019 7.54408 107.837 5.42794 109.468 3.79517C111.097 2.16389 113.184 1.34375 115.663 1.34375C118.142 1.34375 120.228 2.16389 121.857 3.79517C123.488 5.42794 124.306 7.54408 124.306 10.0781C124.306 12.5574 123.489 14.6567 121.864 16.3136C120.235 17.9757 118.146 18.8125 115.663 18.8125ZM123.984 21.4194V67.1875H107.583V21.4194H123.984ZM149.323 67.8325C145.512 67.8325 141.862 67.2926 138.376 66.2122C134.872 65.1265 131.75 63.5218 129.016 61.3989L128.327 60.8638L133.767 49.678L134.797 50.395C137.187 52.0595 139.689 53.3447 142.306 54.2527C144.909 55.1557 147.354 55.6044 149.645 55.6044C150.874 55.6044 151.815 55.4114 152.47 55.0515C152.969 54.7778 153.161 54.4735 153.161 54.0188C153.161 53.3866 152.814 52.9072 151.951 52.4851C150.817 51.9301 148.982 51.3044 146.439 50.6145C143.338 49.6885 140.772 48.7731 138.739 47.8652C136.6 46.9104 134.737 45.4788 133.158 43.5807C131.51 41.6016 130.694 39.0463 130.694 35.9588C130.694 31.2183 132.513 27.4443 136.116 24.7384C139.644 22.0898 144.164 20.7744 149.645 20.7744C152.91 20.7744 156.134 21.2177 159.314 22.1037C162.496 22.9902 165.499 24.2927 168.321 26.0101L169.177 26.5313L163.389 37.7349L162.433 37.2335C156.937 34.3507 152.474 32.9219 149.081 32.9219C148.029 32.9219 147.225 33.1067 146.659 33.4511C146.232 33.7108 146.048 34.0458 146.048 34.5881C146.048 35.1032 146.38 35.5411 147.226 35.9647C148.33 36.5172 150.15 37.142 152.685 37.8297C155.837 38.7546 158.466 39.6685 160.576 40.5741C162.8 41.5283 164.722 42.975 166.332 44.904C168.007 46.9103 168.837 49.5065 168.837 52.6481C168.837 57.3943 166.973 61.1714 163.284 63.8758C159.677 66.5205 155.013 67.8325 149.323 67.8325ZM189.554 65.0179L171.08 21.4194H188.188L197.768 47.5912L206.308 21.4194H222.912L222.34 22.8855L203.652 70.7916C201.915 75.0565 199.564 78.2466 196.591 80.3358C193.609 82.4318 189.931 83.4738 185.586 83.4738C183.054 83.4738 180.68 83.0919 178.471 82.3262C176.261 81.5602 174.117 80.3598 172.04 78.7298L171.293 78.1437L178.39 66.3329L179.353 67.1446C180.293 67.9376 181.168 68.4969 181.969 68.8272C182.751 69.1496 183.578 69.3106 184.459 69.3106C186.412 69.3106 187.791 68.4397 188.741 66.584L189.554 65.0179Z" />
<path d="M254.195 68.2356C248.878 68.2356 244.188 67.2046 240.138 65.135C236.062 63.0525 232.902 60.0718 230.677 56.2086C228.459 52.357 227.353 47.8852 227.353 42.8119V8.51938H244.236V42.8119C244.236 46.0908 245.184 48.6685 247.072 50.6077C248.959 52.5458 251.338 53.5081 254.275 53.5081C257.151 53.5081 259.426 52.5657 261.177 50.6689C262.941 48.7576 263.831 46.1571 263.831 42.8119V8.51938H280.715V42.8119C280.715 47.8811 279.638 52.349 277.477 56.1983C275.307 60.0642 272.2 63.0477 268.176 65.1322C264.178 67.2039 259.513 68.2356 254.195 68.2356ZM303.37 67.1875H286.486V8.51938H303.37V67.1875Z" />
</svg>
