<svg viewBox="0 0 540 132" fill="none" xmlns="http://www.w3.org/2000/svg">
<path d="M175.777 102.29C170.06 102.434 164.433 100.842 159.636 97.723C155.155 94.764 151.827 90.351 150.212 85.226L160.037 81.612C161.399 84.76 163.623 87.457 166.454 89.391C169.327 91.318 172.721 92.317 176.178 92.252C179.502 92.426 182.781 91.432 185.451 89.442C187.806 87.462 189.088 84.485 188.91 81.411C188.923 79.999 188.597 78.605 187.957 77.346C187.401 76.22 186.674 75.187 185.802 74.284C184.699 73.278 183.447 72.449 182.092 71.824C180.42 70.989 179.034 70.353 177.932 69.917C176.829 69.483 175.208 68.898 173.07 68.16C170.395 67.224 168.39 66.488 167.054 65.9529C165.244 65.1815 163.486 64.2927 161.791 63.2922C159.967 62.3232 158.309 61.0698 156.878 59.579C155.641 58.1233 154.643 56.4796 153.921 54.7096C151.082 47.7895 152.98 39.8271 158.633 34.9355C162.644 31.389 168.091 29.6152 174.975 29.6152C180.722 29.6152 185.45 30.8867 189.16 33.4296C192.761 35.8268 195.405 39.416 196.629 43.5687L187.005 46.7803C186.038 44.6055 184.405 42.795 182.343 41.6107C179.848 40.2253 177.023 39.5483 174.173 39.6529C171.377 39.4923 168.608 40.2695 166.302 41.8615C164.392 43.3441 163.325 45.6676 163.445 48.0848C163.462 49.9319 164.264 51.6844 165.65 52.9036C166.982 54.2167 168.546 55.2716 170.261 56.0152C171.866 56.6846 174.306 57.588 177.581 58.7253C179.585 59.4627 181.071 60.0149 182.041 60.3818C183.011 60.7488 184.431 61.3677 186.302 62.2385C187.802 62.9032 189.244 63.6923 190.613 64.5978C191.839 65.4804 193.01 66.436 194.122 67.459C195.33 68.508 196.363 69.745 197.181 71.122C197.959 72.55 198.564 74.066 198.984 75.638C199.496 77.485 199.75 79.394 199.738 81.31C199.738 87.869 197.498 93.005 193.02 96.718C188.542 100.433 182.794 102.29 175.777 102.29ZM240.039 101.085L215.977 30.8196H227.207L243.146 79.805C244.028 82.44 244.764 85.12 245.352 87.835C245.939 85.12 246.676 82.439 247.558 79.805L263.298 30.8196H274.426L250.465 101.085H240.039ZM295.679 101.085V30.82H339.19V40.6577H306.106V59.9302H327.459V69.768H306.106V91.248H341.394V101.085H295.679ZM367.961 101.086V30.82H378.388V91.048H412.675V101.086H367.961ZM451.973 40.8577V101.085H441.546V40.8577H421.697V30.82H471.823V40.8578L451.973 40.8577ZM493.377 101.085V30.82H536.888V40.6577H503.805V59.9302H525.158V69.768H503.805V91.248H539.093V101.085H493.377Z" fill="white"/>
<path fill-rule="evenodd" clip-rule="evenodd" d="M48.7792 5.8709C66.2514 -5.275 90.4161 -0.0779973 102.651 17.4557C108.517 25.676 110.827 35.9159 109.06 45.8624C108.213 50.5642 106.422 55.0452 103.796 59.0345C107.627 66.351 108.913 74.737 107.45 82.867C105.702 92.626 99.928 101.197 91.5455 106.476L60.8601 126.058C43.3906 137.203 19.2256 132.008 6.98775 114.473C1.12327 106.252 -1.18672 96.013 0.579279 86.066C1.42728 81.364 3.2187 76.883 5.84528 72.893C2.01214 65.5781 0.725575 57.1916 2.18928 49.0617C3.93832 39.3025 9.7117 30.7323 18.0936 25.4526L48.7792 5.8709ZM19.6212 106.413C25.4461 114.821 35.8908 118.697 45.7816 116.122H45.7812C47.9874 115.532 50.0902 114.607 52.0165 113.379L82.6997 93.801C87.7401 90.626 91.2121 85.472 92.2644 79.603C93.3266 73.622 91.9371 67.464 88.4096 62.5204C82.5845 54.1127 72.1395 50.2362 62.2485 52.811C60.044 53.4009 57.9428 54.3257 56.0182 55.553L44.3099 63.0241C43.7275 63.395 43.092 63.6746 42.4252 63.8535C39.4452 64.627 36.2996 63.4578 34.5456 60.9247C33.4838 59.4338 33.0659 57.5779 33.3859 55.7751C33.703 54.0071 34.7489 52.4546 36.2673 51.498L66.9536 31.9178C67.5358 31.5466 68.1714 31.2669 68.8383 31.0884C71.8171 30.3142 74.962 31.4829 76.715 34.0156C77.6526 35.3445 78.0909 36.9624 77.9526 38.5836L77.8477 39.7233L78.9881 40.0698C83.3021 41.373 87.362 43.4047 90.9924 46.0773L92.5637 47.2316L93.1416 45.4673C93.4511 44.5288 93.6961 43.5702 93.8749 42.5982C94.9371 36.6166 93.5475 30.4587 90.0201 25.5152C84.1951 17.1077 73.7503 13.2312 63.8595 15.806C61.6533 16.3961 59.5505 17.3212 57.6242 18.5491L26.9405 38.1301C21.8997 41.304 18.4275 46.4573 17.3758 52.3257C16.3136 58.3074 17.7031 64.4653 21.2306 69.409C27.0557 77.816 37.5008 81.693 47.3918 79.118C49.5961 78.528 51.6974 77.604 53.6229 76.378L65.3326 68.904C65.9142 68.534 66.549 68.254 67.215 68.076C70.195 67.302 73.3406 68.471 75.0946 71.004C76.156 72.495 76.5746 74.35 76.2565 76.153C75.9378 77.921 74.8915 79.473 73.3733 80.43L42.6877 100.01C42.1054 100.381 41.4698 100.661 40.803 100.839C37.8242 101.613 34.6793 100.445 32.9263 97.912C31.9877 96.584 31.5492 94.965 31.6886 93.344L31.7936 92.204L30.6531 91.858C26.3398 90.555 22.2803 88.524 18.6496 85.853L17.0776 84.697L16.4997 86.461C16.1895 87.399 15.9444 88.358 15.7664 89.33C14.7041 95.312 16.0937 101.47 19.6212 106.413Z" fill="white"/>
</svg>
