<svg viewBox="0 0 555 78" fill="none" xmlns="http://www.w3.org/2000/svg">
<path fill-rule="evenodd" clip-rule="evenodd" d="M57.5 3.99998C42.1667 3.99998 32.5833 11.6667 28.75 27C34.5 19.3333 41.2083 16.4583 48.875 18.375C53.2493 19.4675 56.3756 22.6428 59.8362 26.1545C65.4733 31.8768 71.9985 38.5 86.25 38.5C101.583 38.5 111.167 30.8333 115 15.5C109.25 23.1667 102.542 26.0417 94.875 24.125C90.5007 23.0325 87.3744 19.8572 83.9138 16.3454C78.2767 10.6231 71.7515 3.99998 57.5 3.99998ZM28.75 38.5C13.4167 38.5 3.83333 46.1667 0 61.5C5.75 53.8333 12.4583 50.9583 20.125 52.875C24.4993 53.9696 27.6256 57.1428 31.0862 60.6545C36.7233 66.3768 43.2485 73 57.5 73C72.8333 73 82.4167 65.3333 86.25 50C80.5 57.6667 73.7917 60.5416 66.125 58.625C61.7507 57.5325 58.6244 54.3572 55.1638 50.8454C49.5267 45.1231 43.0015 38.5 28.75 38.5Z" fill="black"/>
<path fill-rule="evenodd" clip-rule="evenodd" d="M171.203 32.9718H161.175V52.3526C161.175 57.5209 164.571 57.4401 171.203 57.1171V64.9502C157.778 66.5653 152.44 62.8506 152.44 52.3526V32.9718H145V24.5733H152.44V13.7268L161.175 11.1427V24.5733H171.203V32.9718ZM209.43 24.5733H218.164V64.9502H209.43V59.1359C206.357 63.4159 201.585 66 195.277 66C184.279 66 175.14 56.7133 175.14 44.7618C175.14 32.7295 184.279 23.5235 195.277 23.5235C201.585 23.5235 206.357 26.1077 209.43 30.3069V24.5733ZM196.652 57.6824C203.931 57.6824 209.43 52.2719 209.43 44.7618C209.43 37.2517 203.931 31.8412 196.652 31.8412C189.374 31.8412 183.874 37.2517 183.874 44.7618C183.874 52.2719 189.374 57.6824 196.652 57.6824ZM232.722 18.5168C229.648 18.5168 227.141 15.9327 227.141 12.9448C227.143 11.4679 227.733 10.0522 228.778 9.00791C229.825 7.96355 231.242 7.3756 232.722 7.37279C234.201 7.3756 235.618 7.96355 236.665 9.00791C237.71 10.0522 238.3 11.4679 238.302 12.9448C238.302 15.9327 235.795 18.5168 232.722 18.5168ZM228.354 64.9502V24.5733H237.089V64.9502H228.354ZM247.198 64.9502V5.99998H255.932V64.9502H247.198ZM312.624 24.5733H321.843L309.146 64.9502H300.574L292.163 37.7362L283.671 64.9502H275.099L262.402 24.5733H271.621L279.466 52.4334L287.958 24.5733H296.288L304.698 52.4334L312.624 24.5733ZM332.68 18.5168C329.607 18.5168 327.1 15.9327 327.1 12.9448C327.102 11.4679 327.692 10.0522 328.737 9.00791C329.784 7.96355 331.201 7.3756 332.68 7.37279C334.16 7.3756 335.577 7.96355 336.624 9.00791C337.669 10.0522 338.259 11.4679 338.261 12.9448C338.261 15.9327 335.754 18.5168 332.68 18.5168ZM328.313 64.9502V24.5733H337.048V64.9502H328.313ZM368.426 23.5235C377.484 23.5235 383.954 29.6609 383.954 40.1588V64.9502H375.22V41.0471C375.22 34.9099 371.661 31.6797 366.162 31.6797C360.42 31.6797 355.891 35.0714 355.891 43.3082V64.9502H347.157V24.5733H355.891V29.7416C358.56 25.5424 362.927 23.5235 368.426 23.5235ZM425.361 8.42259H434.095V64.9502H425.361V59.1359C422.288 63.4159 417.516 66 411.208 66C400.209 66 391.071 56.7133 391.071 44.7618C391.071 32.7295 400.209 23.5235 411.208 23.5235C417.516 23.5235 422.288 26.1077 425.361 30.3069V8.42259ZM412.583 57.6824C419.861 57.6824 425.361 52.2719 425.361 44.7618C425.361 37.2517 419.861 31.8412 412.583 31.8412C405.304 31.8412 399.805 37.2517 399.805 44.7618C399.805 52.2719 405.304 57.6824 412.583 57.6824ZM463.371 66C451.159 66 442.021 56.7133 442.021 44.7618C442.021 32.7295 451.159 23.5235 463.371 23.5235C471.297 23.5235 478.171 27.642 481.406 33.9408L473.884 38.3015C472.105 34.5061 468.142 32.0835 463.29 32.0835C456.173 32.0835 450.755 37.494 450.755 44.7618C450.755 52.0296 456.173 57.4401 463.29 57.4401C468.142 57.4401 472.105 54.9367 474.046 51.2221L481.567 55.502C478.171 61.8815 471.297 66 463.371 66ZM495.963 35.7174C495.963 43.066 517.718 38.6245 517.718 53.5639C517.718 61.6393 510.682 66 501.947 66C493.86 66 488.037 62.3661 485.449 56.5518L492.97 52.1911C494.264 55.825 497.499 58.0054 501.947 58.0054C505.829 58.0054 508.822 56.7133 508.822 53.4832C508.822 46.2961 487.067 50.3338 487.067 35.8789C487.067 28.2881 493.617 23.5235 501.866 23.5235C508.498 23.5235 513.997 26.5922 516.828 31.922L509.469 36.0404C508.013 32.891 505.182 31.4374 501.866 31.4374C498.712 31.4374 495.963 32.8103 495.963 35.7174ZM533.245 35.7174C533.245 43.066 555 38.6245 555 53.5639C555 61.6393 547.964 66 539.23 66C531.142 66 525.32 62.3661 522.732 56.5518L530.253 52.1911C531.547 55.825 534.782 58.0054 539.23 58.0054C543.112 58.0054 546.104 56.7133 546.104 53.4832C546.104 46.2961 524.349 50.3338 524.349 35.8789C524.349 28.2881 530.9 23.5235 539.149 23.5235C545.78 23.5235 551.28 26.5922 554.11 31.922L546.751 36.0404C545.295 32.891 542.465 31.4374 539.149 31.4374C535.995 31.4374 533.245 32.8103 533.245 35.7174Z" fill="black"/>
</svg>
