<svg viewBox="0 0 368 78" fill="none" xmlns="http://www.w3.org/2000/svg">
<g clip-path="url(#clip0_202_6)">
<path fill-rule="evenodd" clip-rule="evenodd" d="M231.954 57.1446V53.4498C235.328 55.5859 238.745 56.6538 242.207 56.6538C245.887 56.6538 248.681 55.8966 250.587 54.3816C252.492 52.8667 253.446 50.7471 253.446 48.0224C253.446 45.6249 252.805 43.7123 251.523 42.2845C250.287 40.908 247.661 39.0501 243.645 36.7106L243.193 36.4488C238.417 33.6804 235.394 31.3644 234.123 29.5011C232.853 27.6373 232.217 25.485 232.217 23.0437C232.217 19.7307 233.509 16.919 236.095 14.6085C238.68 12.2981 242.13 11.1429 246.446 11.1429C249.25 11.1429 252.054 11.6115 254.858 12.5487V15.949C252.098 14.7066 249.152 14.0854 246.019 14.0854C242.821 14.0854 240.285 14.8919 238.411 16.5048C236.538 18.1178 235.602 20.1666 235.602 22.6515C235.602 25.049 236.243 26.9561 237.524 28.3729C238.806 29.7896 241.572 31.7188 245.822 34.1601C250.225 36.6447 253.155 38.8518 254.612 40.7806C256.069 42.7098 256.797 44.9276 256.797 47.4339C256.797 51.0306 255.543 53.9622 253.035 56.2289C250.526 58.4959 246.983 59.6292 242.404 59.6292C240.783 59.6292 238.915 59.3785 236.801 58.8771C234.687 58.3761 233.071 57.7982 231.954 57.1446ZM115.163 18.5392H128.638V11.9313H93.9368V18.5392H107.379V58.8408H115.163V18.5392ZM141.06 64.2043L156.242 25.334H148.552L140.14 49.7423C139.94 50.4905 139.784 51.0996 139.671 51.5698L139.548 52.0981H139.384C139.209 51.3503 139.069 50.7661 138.966 50.3458L138.792 49.6769L130.774 25.334H122.329L135.704 58.7726L133.436 64.2697C132.034 67.0614 129.909 68.4577 127.061 68.4577C126.075 68.4577 124.98 68.2613 123.775 67.8687V74.1834C124.848 74.4668 126.185 74.6087 127.784 74.6087C133.48 74.6087 137.905 71.1406 141.06 64.2043ZM168.721 53.8763H168.59V74.2145H160.974V25.3305H168.59V31.2162H168.721C171.326 26.7689 175.134 24.5456 180.146 24.5456C184.413 24.5456 187.74 26.0388 190.125 29.0253C192.511 32.0117 193.704 36.0227 193.704 41.0582C193.704 46.6388 192.358 51.1074 189.666 54.4648C186.974 57.8218 183.297 59.5003 178.635 59.5003C174.346 59.5003 171.041 57.6255 168.721 53.8763ZM168.466 45.0001V40.8697C168.466 38.0079 169.292 35.623 170.943 33.7146C172.593 31.8067 174.774 30.8528 177.486 30.8528C180.044 30.8528 182.072 31.7795 183.57 33.6334C185.068 35.4874 185.817 38.0512 185.817 41.325C185.817 45.228 185.013 48.2688 183.406 50.4476C181.799 52.6267 179.585 53.7162 176.764 53.7162C174.359 53.7162 172.375 52.8707 170.811 51.1796C169.248 49.4885 168.466 47.4284 168.466 45.0001V45.0001ZM228.011 44.1491H205.295C205.382 47.2475 206.331 49.6363 208.143 51.3164C209.954 52.9964 212.444 53.8365 215.611 53.8365C219.17 53.8365 222.435 52.7674 225.407 50.6293V56.7492C222.37 58.6693 218.356 59.6292 213.366 59.6292C208.462 59.6292 204.617 58.1072 201.829 55.0636C199.041 52.02 197.647 47.7382 197.647 42.2183C197.647 37.0038 199.182 32.7548 202.252 29.4711C205.322 26.1874 209.135 24.5456 213.691 24.5456C218.248 24.5456 221.773 26.0183 224.268 28.9638C226.763 31.9092 228.011 36.0002 228.011 41.2363V44.1491ZM218.999 32.3476C220.253 33.8696 220.891 35.9994 220.913 38.7367H205.534C205.88 36.1524 206.805 34.0611 208.308 32.4623C209.811 30.8638 211.644 30.0644 213.807 30.0644C216.014 30.0644 217.744 30.8256 218.999 32.3476V32.3476ZM276.083 59.6292C279.558 59.6292 282.55 58.8668 285.057 57.3425V54.2066C282.55 55.9923 279.603 56.8852 276.215 56.8852C272.52 56.8852 269.545 55.5678 267.29 52.9326C265.035 50.2974 263.908 46.8131 263.908 42.4792C263.908 37.9933 265.14 34.3402 267.604 31.5198C270.067 28.6997 273.279 27.2896 277.238 27.2896C280.12 27.2896 282.77 28.0299 285.19 29.5109V26.1137C282.77 25.0683 280.273 24.5456 277.7 24.5456C272.729 24.5456 268.659 26.2387 265.492 29.6252C262.324 33.0118 260.741 37.3618 260.741 42.6756C260.741 47.728 262.149 51.8166 264.964 54.9414C267.78 58.0666 271.486 59.6292 276.083 59.6292ZM304.906 28.3563C303.905 27.6334 302.729 27.2723 301.379 27.2723C298.745 27.2723 296.535 28.6409 294.75 31.3782C292.965 34.1159 292.072 38.0031 292.072 43.0402V58.8408H289.133V25.2027H292.072V32.6594H292.203C292.965 30.0971 294.173 28.1044 295.828 26.681C297.482 25.2575 299.398 24.5456 301.575 24.5456C302.816 24.5456 303.927 24.7427 304.906 25.1369V28.3563ZM309.615 16.3141C310.126 16.8086 310.714 17.0558 311.38 17.0558C312.09 17.0558 312.7 16.7974 313.21 16.2804C313.721 15.7635 313.976 15.1454 313.976 14.4261C313.976 13.6619 313.715 13.0551 313.194 12.6056C312.672 12.1561 312.067 11.9313 311.38 11.9313C310.736 11.9313 310.153 12.1616 309.632 12.6224C309.11 13.0832 308.85 13.6844 308.85 14.4261C308.85 15.1903 309.105 15.8196 309.615 16.3141V16.3141ZM309.638 58.8408V25.334H312.793V58.8408H309.638ZM322.897 52.8766H323.028C325.424 57.3858 329.128 59.6406 334.138 59.6406C338.626 59.6406 342.237 57.9141 344.971 54.4613C347.705 51.0085 349.072 46.4827 349.072 40.8839C349.072 35.852 347.879 31.8706 345.494 28.9405C343.108 26.0104 339.792 24.5456 335.543 24.5456C332.864 24.5456 330.408 25.2153 328.175 26.5552C325.942 27.8951 324.226 29.7955 323.028 32.2573H322.897V25.3624H319.891V74.2145H322.897V52.8766ZM323.046 40.4231V44.6327C323.046 47.983 324.113 50.8599 326.247 53.2641C328.381 55.6679 331.186 56.8698 334.662 56.8698C338.116 56.8698 340.921 55.407 343.078 52.4808C345.233 49.5547 346.312 45.7097 346.312 40.9454C346.312 36.7685 345.321 33.4509 343.341 30.9923C341.361 28.5341 338.721 27.305 335.421 27.305C331.483 27.305 328.436 28.6102 326.28 31.221C324.124 33.8313 323.046 36.899 323.046 40.4231V40.4231ZM363.613 59.6292C364.977 59.6292 366.44 59.2595 368 58.5199V55.7136C366.57 56.5186 365.238 56.9211 364.003 56.9211C362.269 56.9211 361.04 56.4043 360.314 55.3711C359.588 54.3379 359.225 52.6685 359.225 50.3624V28.3051H368V25.5642H359.225V15.8733C358.748 16.0473 358.25 16.2104 357.73 16.3627C357.21 16.5367 356.712 16.7107 356.235 16.8848V25.5642H350.255V28.3051H356.235V50.7538C356.235 56.6708 358.694 59.6292 363.613 59.6292V59.6292Z" fill="white"/>
<path fill-rule="evenodd" clip-rule="evenodd" d="M6.09046 0H71.8674C75.2311 0 77.9579 2.72826 77.9579 6.09375V71.9062C77.9579 75.2717 75.2311 78 71.8674 78H6.09046C2.72679 78 0 75.2717 0 71.9062V6.09375C0 2.72826 2.72679 0 6.09046 0ZM45.8362 69.4977V61.0822C47.3619 62.3622 49.0191 63.322 50.8081 63.9618C52.5969 64.602 54.403 64.9219 56.2268 64.9219C57.2966 64.9219 58.2306 64.8253 59.0284 64.6324C59.8263 64.4396 60.4929 64.1724 61.0276 63.8305C61.5624 63.4886 61.9616 63.0852 62.2244 62.6209C62.4875 62.1562 62.6191 61.652 62.6191 61.1087C62.6191 60.3723 62.4086 59.7148 61.9878 59.1362C61.5669 58.5576 60.9926 58.0229 60.2648 57.532C59.537 57.0412 58.6734 56.568 57.6736 56.1122C56.6742 55.656 55.5955 55.1917 54.438 54.7182C51.4918 53.4909 49.2956 51.9919 47.8488 50.2213C46.4017 48.4505 45.6784 46.3116 45.6784 43.8046C45.6784 41.8409 46.0731 40.1535 46.8621 38.7422C47.6514 37.3309 48.7255 36.1695 50.0846 35.2575C51.4437 34.3459 53.0178 33.6753 54.8065 33.246C56.5953 32.8164 58.4891 32.6016 60.4883 32.6016C62.4525 32.6016 64.1931 32.7198 65.71 32.9565C67.2268 33.1933 68.6255 33.5571 69.9057 34.0479V41.911C69.2744 41.4728 68.5859 41.0871 67.8407 40.7541C67.0952 40.4208 66.3282 40.1447 65.5391 39.9256C64.7498 39.7063 63.9651 39.5442 63.1846 39.4391C62.4044 39.3339 61.6635 39.2812 60.9619 39.2812C59.9974 39.2812 59.1204 39.3732 58.3314 39.5573C57.5421 39.7416 56.8758 40 56.3322 40.3333C55.7886 40.6663 55.3675 41.0652 55.0693 41.5298C54.7712 41.9945 54.6223 42.5158 54.6223 43.0944C54.6223 43.7257 54.7889 44.2909 55.122 44.7906C55.4552 45.2903 55.9287 45.7638 56.5426 46.2107C57.1562 46.658 57.9017 47.0962 58.7784 47.5258C59.6554 47.9554 60.6461 48.3978 61.7509 48.8539C63.2592 49.4849 64.614 50.1555 65.8153 50.8654C67.0164 51.5757 68.0469 52.3776 68.9059 53.2719C69.7653 54.1658 70.4231 55.1871 70.8789 56.3355C71.3348 57.4839 71.5629 58.8208 71.5629 60.3461C71.5629 62.45 71.164 64.2162 70.3661 65.6449C69.568 67.0739 68.4851 68.2311 67.1172 69.1165C65.7496 70.0016 64.1578 70.6372 62.3429 71.023C60.5279 71.4087 58.6118 71.6016 56.5953 71.6016C54.5258 71.6016 52.5573 71.4264 50.6897 71.0757C48.822 70.725 47.2041 70.1991 45.8362 69.4977ZM42.6332 40.1401H31.8172V70.9922H23.2487V40.1401H12.4854V33.2109H42.6332V40.1401Z" fill="white"/>
</g>
<defs>
<clipPath id="clip0_202_6">
<rect width="368" height="78" fill="white"/>
</clipPath>
</defs>
</svg>
