<svg viewBox="0 0 293 100" fill="none" xmlns="http://www.w3.org/2000/svg">
<g clip-path="url(#clip0_202_2)">
<path d="M31.5574 17.0805L3.00856 12.0416C0.877325 11.6654 -0.730904 13.9149 0.341575 15.7721L48.248 98.7279C49.2325 100.432 51.7242 100.422 52.6941 98.7095L99.6691 15.7641C100.723 13.9033 99.1069 11.6712 96.9828 12.0535L74.8028 16.0454L73.3212 21.1172L77.9644 20.2324C82.7453 19.3213 86.5093 24.2225 84.3269 28.5231L55.887 84.5677L55.2373 85.5591C51.7068 90.9466 43.2418 87.5194 44.557 81.2358L47.9962 64.7985L47.3638 64.9883C43.1061 66.2652 39.0136 62.5843 39.9037 58.2802L41.7461 49.3717L37.0989 50.4307C33.2792 51.3006 29.6856 48.3014 29.9169 44.4385L31.5574 17.0805Z" fill="white"/>
<path d="M71.3984 0.0244749L38.0414 6.78776C37.4931 6.89891 37.0872 7.37968 37.0541 7.95665L35.0022 43.8161C34.954 44.6607 35.7036 45.3162 36.5002 45.1261L45.7873 42.9083C46.6562 42.701 47.4414 43.4929 47.2628 44.3971L44.5036 58.3778C44.3179 59.3187 45.1717 60.1233 46.0597 59.8442L51.7959 58.0409C52.6851 57.7615 53.5396 58.5684 53.3515 59.5101L48.9666 81.4706C48.6922 82.8442 50.458 83.5933 51.1944 82.4156L51.6863 81.629L78.8675 25.4995C79.3227 24.5597 78.5378 23.4881 77.5402 23.6873L67.9807 25.5963C67.0824 25.7755 66.3181 24.9099 66.5716 24.0004L72.8109 1.61955C73.0647 0.708575 72.2977 -0.157839 71.3984 0.0244749Z" fill="white"/>
<path d="M138.494 20.9091L152.156 65.6534H152.663L166.325 20.9091H182.851L162.239 82H142.581L121.969 20.9091H138.494ZM189.428 82V36.1818H204.015V82H189.428ZM196.737 30.8423C194.688 30.8423 192.928 30.1662 191.457 28.8139C189.985 27.4418 189.249 25.7912 189.249 23.8622C189.249 21.9531 189.985 20.3224 191.457 18.9702C192.928 17.598 194.688 16.9119 196.737 16.9119C198.805 16.9119 200.565 17.598 202.016 18.9702C203.488 20.3224 204.224 21.9531 204.224 23.8622C204.224 25.7912 203.488 27.4418 202.016 28.8139C200.565 30.1662 198.805 30.8423 196.737 30.8423ZM239.162 36.1818V46.9205H210.257V36.1818H239.162ZM216.312 25.2045H230.899V67.5923C230.899 68.4872 231.038 69.2131 231.316 69.7699C231.615 70.3068 232.042 70.6946 232.599 70.9332C233.156 71.152 233.822 71.2614 234.598 71.2614C235.154 71.2614 235.741 71.2116 236.358 71.1122C236.994 70.9929 237.471 70.8935 237.789 70.8139L239.997 81.3438C239.301 81.5426 238.316 81.7912 237.044 82.0895C235.791 82.3878 234.289 82.5767 232.539 82.6562C229.119 82.8153 226.186 82.4176 223.74 81.4631C221.314 80.4886 219.454 78.9773 218.162 76.929C216.889 74.8807 216.272 72.3054 216.312 69.2031V25.2045ZM267.529 82.8651C262.737 82.8651 258.6 81.9205 255.12 80.0312C251.66 78.1222 248.995 75.4077 247.126 71.8878C245.277 68.348 244.352 64.142 244.352 59.2699C244.352 54.5369 245.287 50.4006 247.156 46.8608C249.025 43.3011 251.66 40.5369 255.061 38.5682C258.461 36.5795 262.468 35.5852 267.082 35.5852C270.343 35.5852 273.326 36.0923 276.031 37.1065C278.735 38.1207 281.072 39.6222 283.041 41.6108C285.01 43.5994 286.541 46.0554 287.635 48.9787C288.728 51.8821 289.275 55.2131 289.275 58.9716V62.6108H249.453V54.1392H275.703C275.683 52.5881 275.315 51.206 274.599 49.9929C273.883 48.7798 272.899 47.8352 271.646 47.1591C270.413 46.4631 268.991 46.1151 267.38 46.1151C265.75 46.1151 264.288 46.483 262.995 47.2188C261.703 47.9347 260.679 48.919 259.923 50.1719C259.167 51.4048 258.77 52.8068 258.73 54.3778V62.9986C258.73 64.8679 259.098 66.5085 259.833 67.9205C260.569 69.3125 261.613 70.3963 262.966 71.1719C264.318 71.9474 265.929 72.3352 267.798 72.3352C269.091 72.3352 270.264 72.1562 271.318 71.7983C272.372 71.4403 273.277 70.9134 274.032 70.2173C274.788 69.5213 275.355 68.6662 275.733 67.652L289.126 68.0398C288.569 71.0426 287.346 73.6577 285.457 75.8849C283.588 78.0923 281.132 79.8125 278.089 81.0455C275.047 82.2585 271.527 82.8651 267.529 82.8651Z" fill="white"/>
</g>
<defs>
<clipPath id="clip0_202_2">
<rect width="293" height="100" fill="white"/>
</clipPath>
</defs>
</svg>
