<svg width="424" height="155" viewBox="0 0 424 155" fill="none" xmlns="http://www.w3.org/2000/svg">
<g clip-path="url(#clip0_204_2)">
<path fill-rule="evenodd" clip-rule="evenodd" d="M62.8054 19.2001L67.7115 16.3676L68.9483 18.5099L69.6215 18.1213L70.2443 19.2001H62.8054ZM23.2679 42.0272L50.6039 26.2447H83.837L24.6751 60.4019L15.6828 49.5734L23.2679 42.0272ZM43.2595 93.8084L44.0705 95.2131L44.3108 95.0744L43.2595 93.8084ZM44.4432 95.2338V99.9546H48.3634L44.4432 95.2338ZM51.2288 103.405V108.127H55.1499L51.2288 103.405ZM64.3074 108.127L38.4522 76.9923L104.448 38.8896L103.167 36.6717L117.562 28.3611L132.623 44.0874L52.9384 90.0932H85.6424V87.5337H104.043L85.6881 108.127H64.3074ZM95.1249 108.127H99.5904V103.117L95.1249 108.127ZM102.409 99.9546H106.873V94.946L102.409 99.9546ZM111.006 90.3094H111.521V89.7317L111.006 90.3094ZM130.867 32.0685L127.216 25.7447L125.667 26.639L130.867 32.0685ZM124.605 25.5307L124.07 24.6036L123.843 24.7347L124.605 25.5307Z" fill="white"/>
<path fill-rule="evenodd" clip-rule="evenodd" d="M122.381 16H32.748L0 48.5795L74.3492 138.111L80.2804 131.456L153.876 48.8853L122.381 16ZM119.106 23.6706L143.433 49.0725L74.5551 126.351L10.3804 49.0725L35.9133 23.6706H119.106Z" fill="white"/>
<path d="M178.364 124V110L222.364 51.2727H178.545V30.9091H254.545V44.9091L210.545 103.636H254.364V124H178.364ZM300.875 125.273C293.299 125.273 286.814 123.773 281.42 120.773C276.027 117.742 271.89 113.53 269.011 108.136C266.133 102.712 264.693 96.4242 264.693 89.2727C264.693 82.1212 266.133 75.8485 269.011 70.4545C271.89 65.0303 276.027 60.8182 281.42 57.8182C286.814 54.7879 293.299 53.2727 300.875 53.2727C308.451 53.2727 314.936 54.7879 320.33 57.8182C325.723 60.8182 329.86 65.0303 332.739 70.4545C335.617 75.8485 337.057 82.1212 337.057 89.2727C337.057 96.4242 335.617 102.712 332.739 108.136C329.86 113.53 325.723 117.742 320.33 120.773C314.936 123.773 308.451 125.273 300.875 125.273ZM301.057 106.727C303.178 106.727 305.011 106.015 306.557 104.591C308.102 103.167 309.299 101.136 310.148 98.5C310.996 95.8636 311.42 92.7273 311.42 89.0909C311.42 85.4242 310.996 82.2879 310.148 79.6818C309.299 77.0455 308.102 75.0152 306.557 73.5909C305.011 72.1667 303.178 71.4545 301.057 71.4545C298.814 71.4545 296.89 72.1667 295.284 73.5909C293.678 75.0152 292.451 77.0455 291.602 79.6818C290.754 82.2879 290.33 85.4242 290.33 89.0909C290.33 92.7273 290.754 95.8636 291.602 98.5C292.451 101.136 293.678 103.167 295.284 104.591C296.89 106.015 298.814 106.727 301.057 106.727ZM372.511 124.909C367.542 124.909 362.966 123.606 358.784 121C354.633 118.394 351.299 114.439 348.784 109.136C346.299 103.833 345.057 97.1515 345.057 89.0909C345.057 80.6667 346.36 73.8182 348.966 68.5455C351.602 63.2727 354.996 59.4091 359.148 56.9545C363.33 54.5 367.723 53.2727 372.33 53.2727C375.784 53.2727 378.814 53.8788 381.42 55.0909C384.027 56.2727 386.208 57.8636 387.966 59.8636C389.723 61.8333 391.057 64 391.966 66.3636H392.33V30.9091H417.42V124H392.511V112.545H391.966C390.996 114.909 389.602 117.03 387.784 118.909C385.996 120.758 383.814 122.227 381.239 123.318C378.693 124.379 375.784 124.909 372.511 124.909ZM381.784 105.636C384.087 105.636 386.057 104.97 387.693 103.636C389.36 102.273 390.633 100.364 391.511 97.9091C392.42 95.4242 392.875 92.4848 392.875 89.0909C392.875 85.6364 392.42 82.6818 391.511 80.2273C390.633 77.7424 389.36 75.8485 387.693 74.5455C386.057 73.2121 384.087 72.5455 381.784 72.5455C379.481 72.5455 377.511 73.2121 375.875 74.5455C374.269 75.8485 373.027 77.7424 372.148 80.2273C371.299 82.6818 370.875 85.6364 370.875 89.0909C370.875 92.5455 371.299 95.5152 372.148 98C373.027 100.455 374.269 102.348 375.875 103.682C377.511 104.985 379.481 105.636 381.784 105.636Z" fill="white"/>
</g>
<defs>
<clipPath id="clip0_204_2">
<rect width="424" height="155" fill="white"/>
</clipPath>
</defs>
</svg>
